<svg width="823" height="80" viewBox="0 0 823 80" fill="none" xmlns="http://www.w3.org/2000/svg">
<path d="M56.9348 57.9C58.6348 56.9 60.2348 56.9 58.9348 61.2C58.2348 63.5 52.9348 67.1 50.5348 67.6C49.1348 68.4 47.4348 69.3 45.9348 70C45.7348 70.1 45.1348 71.1 45.0348 71.1C44.0348 71.4 42.4348 71.5 42.1348 72.9C40.1348 72.3 40.2348 73.9 38.7348 73.8C37.1348 74.9 34.6348 75.1 33.2348 76.5C32.4348 76.8 30.4348 75.9 30.4348 77C30.1348 77.8 28.1348 76.9 28.0348 77.9C24.4348 77.7 21.9348 78.4 19.3348 79.2C15.3348 79.1 11.1348 79.4 7.83477 78.7C6.33477 77.6 5.13477 76.3 3.03477 75.8C2.73477 74.4 2.43477 72.9 1.13477 72.4C1.23477 69.2 0.534766 69.6 0.834766 66.2C1.03477 64.2 2.73477 61.4 3.13477 59.4C5.83477 56.5 7.73477 52.8 10.7348 50.3C16.1348 45 22.9348 38.8 33.8348 40.7C36.0348 43.9 36.9348 48.4 38.1348 52.7C37.1348 52.6 37.9348 54.4 37.6348 55.1C36.3348 56.3 33.9348 59 30.9348 56.5C31.0348 55.7 30.7348 54.9 30.9348 54.1C31.2348 52.5 33.0348 51.5 32.8348 48.8C32.8348 47.8 32.3348 47.2 31.9348 46C29.7348 44.5 27.3348 44.1 24.7348 45.5C25.2348 46.5 25.2348 46.5 24.2348 46C23.2348 45.5 23.5348 46.8 23.2348 46.9C22.9348 47.1 22.2348 46.8 21.8348 46.9C21.2348 47.3 20.6348 48.3 19.4348 47.9C19.1348 48.6 18.1348 48.8 17.5348 49.3C17.1348 49.7 17.2348 51.6 15.6348 50.8C15.6348 52.4 14.5348 52.9 13.6348 53.7C13.1348 56.1 10.2348 56.2 9.83477 58.9C8.63477 59.2 8.13477 60.1 7.43477 60.8C6.43477 64.7 4.03477 65.2 5.43477 70C6.43477 72.7 9.03477 73.8 11.6348 74.8C16.9348 74.5 22.7348 74.7 26.5348 72.9C28.0348 72.3 30.0348 72.2 31.3348 71.5C34.7348 70.7 37.0348 68.1 40.4348 67.3C43.1348 65.8 46.1348 64.3 49.1348 63.2C51.8348 61.8 53.9348 59 56.9348 57.9ZM93.6113 61.1C93.6113 61.3 93.6113 64.7 93.3113 65.2C91.8113 67.6 78.5113 75.5 71.0113 76C64.7113 76.4 58.9113 74.9 55.1113 72.3C52.8113 72 52.0113 69.3 52.2113 67.5C51.8113 65.5 51.2113 63 51.8113 60.7C51.8113 60.7 52.2113 60.5 52.2113 60.2C52.5113 59.2 54.1113 54.4 55.3113 53.9C55.8113 52.5 56.3113 51 57.7113 50.5C58.8113 47.8 61.5113 46.6 62.9113 44.3C65.6113 43.1 68.2113 41.9 70.1113 39.9C73.6113 40.2 75.0113 38.4 78.3113 38.5C79.7113 39.6 79.8113 40.9 79.7113 42.8C79.7113 43.6 79.5113 43.4 79.3113 43.8C78.9113 44.5 79.1113 46.2 78.3113 47.1C78.3113 51 74.6113 55.3 74.3113 58.8C72.9113 59.5 71.9113 61.6 71.0113 62.7C70.1113 63.8 68.7113 64.2 68.1113 65.5C65.8113 66.3 64.6113 68.1 62.3113 68.9C63.8113 70.2 66.2113 70.8 67.6113 71.2H68.6113C73.9113 70.9 81.8113 67.6 86.0113 64.5C86.9113 63.8 88.9113 62.8 89.8113 62.4C90.7113 62.1 92.6113 61.1 93.6113 61.1ZM74.0113 44.3C72.7113 45.2 71.4113 44.8 70.6113 45.2C67.7113 46.8 66.1113 49.8 63.4113 51C61.6113 54.3 57.1113 60 57.0113 65.1C58.5113 65.2 60.3113 64.4 60.9113 64.1C62.1113 63.4 62.8113 63 63.8113 62.2C66.8113 59.8 70.7113 52.9 72.5113 50C73.4113 48.6 74.5113 47.1 74.5113 45.2C74.4113 44.9 74.4113 44.3 74.0113 44.3ZM128.915 56.9C129.215 57 128.215 62.7 128.215 62.3C128.215 62.1 123.715 67.5 122.215 68.2C120.915 68.8 119.915 70.8 118.615 70.8C117.415 71.6 114.015 74.6 113.615 74.6C113.015 74.6 111.215 76.5 110.015 76.5C109.815 76.5 109.515 76.4 109.415 76.4C108.515 76.4 104.815 78.1 103.415 78.4C100.715 78.4 100.315 78.9 99.1152 78.9C96.3152 78.8 93.6152 77.8 91.4152 76.5C90.7152 74.7 89.9152 73.1 89.9152 70.7C89.9152 65.9 92.7152 60.3 95.7152 55.4C96.3152 54.4 96.8152 52.8 97.6152 51.5C101.515 45.1 105.815 38.5 110.115 32.3C110.615 31.4 111.315 30.6 111.615 29.4C112.815 28.8 115.715 25.5 116.415 22.7C121.915 18.2 122.515 14.5 131.215 6.4C133.915 3.9 139.415 2.1 139.415 0.599994C140.615 0.599994 141.015 1.2 142.115 1.2C142.315 1.2 142.515 1.2 142.815 1.09999C143.215 2.49999 143.815 3.7 143.815 5.5C143.815 8.1 142.315 14 140.815 17C140.315 17.9 139.415 18.2 139.415 19.4C136.015 28.6 131.215 35 124.515 41.9C122.515 44 119.915 45.8 118.815 48.6C116.215 49.8 112.215 52.3 111.615 53.9C110.715 53.9 110.715 54.2 110.615 54.9C108.415 55.5 106.615 56.7 104.815 57.8C103.615 59.4 101.015 59.7 100.515 62.1C98.4152 62.4 97.9152 64.3 95.7152 64.5C95.3152 66.1 94.7152 68.1 94.7152 70.1C94.7152 73.3 96.9152 73.6 98.9152 73.6C106.815 73.6 114.015 68.3 118.115 65.5C122.615 62.4 126.315 59.7 128.915 56.9ZM138.215 6.59999C136.715 6.59999 135.615 8.3 134.615 9.3C132.415 12 129.315 14.6 127.415 17C126.315 18.4 122.615 21.7 122.615 22.2C122.615 23.8 121.215 23.8 121.215 25.6C117.715 27.2 116.815 30.6 116.815 31.4C113.515 33.2 112.315 37.4 111.615 38.1C111.215 38.4 110.315 38 110.115 38.6C109.515 42.8 107.715 42.7 107.715 43.7C107.715 44.2 106.715 44 106.715 44.5C106.715 44.9 105.215 47.7 104.515 47.7C104.515 47.7 103.315 50.7 103.315 50.3C103.315 51.3 100.515 55.4 99.7152 56.1C103.315 56.1 111.215 47.3 114.215 45.7C114.415 45.7 114.715 45.8 114.815 45.8C115.915 45.8 119.515 41.2 120.715 40C124.615 36.1 127.915 31.6 131.715 27.5C132.415 24.8 133.915 22.4 135.115 19.8C135.715 20.1 135.615 19.5 135.615 19.1C135.615 17.8 137.615 13.9 138.915 12.2C138.815 11.9 138.815 11.6 138.815 11.3C138.815 9.79999 139.715 8.8 139.715 7.8C139.715 6.9 138.915 6.59999 138.215 6.59999ZM166.076 61.1C166.076 61.3 166.076 64.7 165.776 65.2C164.276 67.6 150.976 75.5 143.476 76C137.176 76.4 131.376 74.9 127.576 72.3C125.276 72 124.476 69.3 124.676 67.5C124.276 65.5 123.676 63 124.276 60.7C124.276 60.7 124.676 60.5 124.676 60.2C124.976 59.2 126.576 54.4 127.776 53.9C128.276 52.5 128.776 51 130.176 50.5C131.276 47.8 133.976 46.6 135.376 44.3C138.076 43.1 140.676 41.9 142.576 39.9C146.076 40.2 147.476 38.4 150.776 38.5C152.176 39.6 152.276 40.9 152.176 42.8C152.176 43.6 151.976 43.4 151.776 43.8C151.376 44.5 151.576 46.2 150.776 47.1C150.776 51 147.076 55.3 146.776 58.8C145.376 59.5 144.376 61.6 143.476 62.7C142.576 63.8 141.176 64.2 140.576 65.5C138.276 66.3 137.076 68.1 134.776 68.9C136.276 70.2 138.676 70.8 140.076 71.2H141.076C146.376 70.9 154.276 67.6 158.476 64.5C159.376 63.8 161.376 62.8 162.276 62.4C163.176 62.1 165.076 61.1 166.076 61.1ZM146.476 44.3C145.176 45.2 143.876 44.8 143.076 45.2C140.176 46.8 138.576 49.8 135.876 51C134.076 54.3 129.576 60 129.476 65.1C130.976 65.2 132.776 64.4 133.376 64.1C134.576 63.4 135.276 63 136.276 62.2C139.276 59.8 143.176 52.9 144.976 50C145.876 48.6 146.976 47.1 146.976 45.2C146.876 44.9 146.876 44.3 146.476 44.3ZM209.98 49.1C209.98 50.4 208.58 51.7 207.88 53C207.28 53.4 205.48 53.6 204.48 53.6C203.88 53.6 204.08 53.9 203.18 54.2C202.08 55.1 201.98 56.9 201.68 58.6C200.58 59.2 200.18 60.5 199.78 61.9C197.28 64.8 194.18 67.2 191.68 70.1C189.38 70.3 188.88 72.2 186.88 72.5C185.78 73.9 183.28 73.7 182.48 75.4C176.78 76.3 173.38 78.8 167.98 78.8C163.68 78.8 161.48 75.9 160.48 72C160.88 70.7 160.58 69.3 160.88 68.2C160.98 67.9 161.78 67.4 161.88 67.2C162.18 66.3 161.88 65.1 162.38 64.3C162.78 63.4 163.98 60.6 165.28 58.1C165.48 57.6 166.08 57.4 166.18 57.1C171.38 46.7 173.48 43.5 177.28 37.9C178.28 36.1 179.88 34.9 181.08 33.1C184.68 27.5 189.48 24.2 193.58 18.7C193.98 18.2 194.68 18 194.68 17.4C194.68 17.2 194.58 17.1 194.48 16.8C196.18 16.4 196.28 14.4 197.88 13.9C198.28 12.2 199.78 11.7 201.28 11C202.08 9.3 203.78 5.3 206.18 5.3C207.68 5.3 208.98 7.9 208.98 7.99999C208.98 13.3 190.68 29.8 191.98 29.8C191.78 29.8 191.58 29.7 191.38 29.7C190.58 29.7 185.88 33.6 185.88 35.6C185.88 35.8 185.98 35.9 186.18 35.9C187.38 35.9 187.58 35 188.88 35C189.98 35 190.98 35.5 192.38 35.5C192.88 35.5 196.88 39 198.88 40.3C200.58 42.8 201.78 45 202.68 48C203.68 48.1 204.48 48.2 205.28 48.1C206.58 48 208.08 48.5 209.68 48.1C209.88 48.5 209.98 48.8 209.98 49.1ZM196.88 47.5C196.18 46.5 195.78 45.4 194.98 44.6C194.48 43.7 193.88 43.1 193.08 41.8C191.58 41.8 191.08 40.8 189.58 40.8C188.38 40.8 187.38 41.3 185.88 41.3C185.58 42.8 183.48 42.5 183.48 44.3C183.48 46.3 189.98 48.1 193.38 48.1C194.28 48.1 196.48 48.4 196.88 47.5ZM166.08 70.9C166.08 73 168.38 73.4 169.68 73.4C172.78 73.4 176.18 71 179.68 71C181.18 69.5 183.48 68.8 185.88 68.2C188.08 66.1 190.88 64.5 192.58 61.9C192.78 61.8 195.98 58.8 195.98 58.6C195.98 56.4 197.58 55.7 197.88 53.8C191.18 53.8 186.28 52.6 181.58 50.9C180.28 48.6 177.68 47.2 177.68 47C177.08 47.1 177.18 48.1 176.78 48.5C172.88 53.1 170.58 59.2 167.68 64.8C167.18 66.9 166.08 68.3 166.08 70.9ZM249.164 62.4C250.664 61.1 254.264 58.8 254.264 58.7C254.264 58.6 255.564 62.5 255.564 62.5C255.564 62.5 252.064 66.2 251.964 66C246.764 69.3 241.864 73.6 235.164 75.1C231.964 75.4 228.364 74.9 226.064 74.6C225.064 74.5 224.764 74.6 223.664 74.1C223.464 74 223.664 73.7 223.164 73.6C221.864 73.6 221.164 71.8 220.264 70.7C220.064 68.5 220.964 67.3 221.264 65.5C223.964 62.3 225.464 58.8 228.464 55.9C228.264 53.8 227.864 50.9 226.964 49.6C224.064 50.3 215.764 62.2 212.964 63C212.964 63 209.364 60.4 209.464 60.5C210.964 59.2 213.664 55.7 214.964 54.7C216.264 53.2 221.164 46.5 222.964 45.6C223.064 44.5 226.264 42.5 227.064 41.8C227.564 41.2 227.164 39.3 229.364 40C231.664 40.6 231.364 43.7 231.764 46.3C232.564 47.5 232.864 49.3 233.664 50.6C233.264 52.9 235.164 53.9 235.164 55.9C234.264 55.9 234.464 57.3 234.164 57.8C233.764 58.4 233.064 58.8 232.764 59.2C231.664 62 229.964 63.1 228.464 65.5C227.964 66.9 226.064 66.9 226.564 69.3C228.464 70.4 231.464 70.6 234.664 70.3C240.264 69.7 245.364 65.2 249.164 62.4ZM309.41 56.7C309.41 56.7 310.61 60.2 310.91 60.1C309.21 61 307.31 63.5 305.71 64.3C304.01 65.1 304.41 65.8 302.71 66.7C301.01 67.6 299.71 68.9 298.01 69.8C297.11 70.2 296.01 70.2 295.11 70.7C294.11 71.3 293.91 71.8 292.71 71.7C291.01 73.4 287.91 72.9 286.51 74.9C283.01 75.3 280.61 75.1 277.31 75.7C277.31 74.7 275.31 75.5 274.51 75.2C274.41 74 272.61 74.5 272.51 73.3C271.61 73.2 272.41 71.2 271.11 71.4C269.71 71.2 269.31 72.6 268.21 72.8C266.91 73.2 265.01 74.2 263.41 75.2C262.71 75.7 260.11 76.2 258.61 77.2C257.91 77.6 254.01 78.7 252.41 78.6C252.61 78.6 251.01 77.6 250.01 78.1C247.71 76 246.51 72.8 247.61 68.5C248.81 67.2 249.51 65.3 250.01 63.2C251.51 61.9 252.41 59.9 253.81 58.4C256.21 55.4 259.41 53.1 262.01 50.3C263.71 49.2 265.31 48.1 266.31 46.4C268.81 46.3 269.51 44.5 271.11 43.6C273.01 42.7 275.41 42.4 276.41 40.7C280.81 40.1 283.61 37.9 287.91 37.3C291.41 38 292.91 41.5 291.71 45.5C290.91 46.4 290.31 47.5 288.91 47.9C289.11 48.9 287.91 48.6 287.91 49.3C287.81 50 286.71 49.7 286.01 49.8C284.21 47.3 287.31 46.2 287.41 44C285.01 42.8 283.31 45 280.21 44.5C278.81 45.5 276.91 45.7 275.41 46.4C274.01 47.2 273.21 48.5 271.61 48.8C268.91 50.4 267.11 53 263.91 54.1C262.61 56 261.11 57.7 259.61 59.4C258.41 59.8 258.11 61.1 257.21 61.8C256.31 62.5 256.21 64 254.81 64.2C254.01 67.3 252.21 69.2 251.91 72.8C254.81 74.5 257.41 72 260.11 71.9C260.11 71 260.91 71.3 261.51 70.9C262.11 70.6 262.41 70.3 262.91 70C263.81 69.5 265.91 69.5 265.81 68C267.01 68.1 268.11 68.1 268.71 67.5C269.81 67.4 269.61 65.9 271.11 66.1C271.51 64.1 272.81 63 273.01 60.8C274.01 59.7 275.41 59 275.41 57C279.31 55.7 279.41 50.7 285.01 51.2C286.21 51.7 286.21 53.3 286.91 54.1C287.21 57.1 284.61 57.2 284.51 59.9C283.01 60.7 282.11 62.3 281.21 63.7C279.91 64.2 279.21 65.2 278.31 66.1C277.61 66.8 275.71 67.1 276.41 69C275.91 70.7 278.51 69.5 278.81 70.4C279.61 70 280.81 70.2 281.71 70C283.31 69.5 284.51 69.9 286.01 69.1C287.51 68.4 289.31 67.9 290.81 67.2C293.71 65.9 296.51 64.7 299.41 63.4C300.61 62 302.01 61.3 303.41 60.5C305.41 59.4 307.11 58 309.41 56.7ZM340.388 65.2C341.888 66.4 339.988 67.3 340.888 68.4C338.488 69.5 337.388 70.8 335.788 71.6C334.788 72.1 333.088 73.6 331.488 74.1C331.188 74.1 329.688 74.8 329.388 75C328.788 75.2 328.688 75.6 327.488 75.9C326.888 76.1 325.088 76.7 324.188 76.9C322.688 77.3 324.288 76.6 322.188 77.1C321.188 77.3 320.288 77.5 319.288 78.1C317.188 77.2 313.588 77.7 310.688 77.6C310.088 76.6 308.588 76.5 307.288 76.1C306.088 74.1 303.488 72.3 302.988 68.9C302.588 66.4 303.288 63.9 303.988 61.3C305.188 58.8 305.888 54.4 307.288 53.1C309.688 49.2 311.288 44.5 314.088 41.1C313.388 40.3 311.688 40.4 310.188 40.6C309.088 40.8 306.688 41.3 304.488 41.6C301.388 41.9 297.288 43.4 296.288 40.1C296.088 38.2 298.788 39.1 299.688 38.2C300.588 37.4 302.788 37.8 303.488 36.8C308.488 36.5 313.088 35.8 317.888 35.3C318.688 35.2 319.388 34.4 319.788 33.9C320.088 33.5 319.988 32.9 320.288 32.5C320.988 31.6 323.088 30 324.088 28.6C326.088 26.2 327.588 23.5 329.388 20.9C331.088 19.7 330.888 16.7 334.188 17.1C336.188 17.1 334.588 20.5 335.688 21.4C333.288 26.1 329.088 28.9 327.488 34.4C327.688 35.4 329.888 34.6 330.888 34.9C341.988 33.9 353.788 33.4 364.888 32.5C366.088 33.1 367.788 33.9 366.588 35.4C364.088 35.6 361.988 35.9 362.088 35.8C359.288 35.7 357.488 36.6 354.388 36.3C352.288 37.5 350.388 36.7 347.688 37.7C345.788 37.8 344.088 37.7 342.888 37.3C339.588 38.8 339.388 37.2 336.088 38.2C334.688 38.6 334.688 38.6 333.288 38.2C332.388 38.6 331.488 39 330.388 39.2C329.188 39.4 326.788 37.2 325.088 39.2C325.188 40.2 323.388 39.4 322.688 39.7C321.588 42.5 318.988 43.9 317.888 46.9C315.488 48.6 315.688 51.5 313.088 53.1C313.188 54.4 311.788 55 311.188 56C310.488 57 310.488 58.6 309.288 59.3C308.688 63.1 307.088 66.2 308.788 69.9C309.888 70.7 310.588 71.5 311.688 71.8C312.088 71.9 311.988 72.2 312.088 72.3C315.288 73.8 319.688 72.3 323.188 71.8C324.688 71.4 327.088 71 328.688 69.6C328.788 69.5 331.388 68.2 331.488 68.2C332.288 67.8 332.888 67.1 333.788 66.7C334.588 66.4 335.888 66.4 336.688 66.2C337.188 65.1 338.988 65.4 340.388 65.2ZM377.756 61.1C377.756 61.3 377.756 64.7 377.456 65.2C375.956 67.6 362.656 75.5 355.156 76C348.856 76.4 343.056 74.9 339.256 72.3C336.956 72 336.156 69.3 336.356 67.5C335.956 65.5 335.356 63 335.956 60.7C335.956 60.7 336.356 60.5 336.356 60.2C336.656 59.2 338.256 54.4 339.456 53.9C339.956 52.5 340.456 51 341.856 50.5C342.956 47.8 345.656 46.6 347.056 44.3C349.756 43.1 352.356 41.9 354.256 39.9C357.756 40.2 359.156 38.4 362.456 38.5C363.856 39.6 363.956 40.9 363.856 42.8C363.856 43.6 363.656 43.4 363.456 43.8C363.056 44.5 363.256 46.2 362.456 47.1C362.456 51 358.756 55.3 358.456 58.8C357.056 59.5 356.056 61.6 355.156 62.7C354.256 63.8 352.856 64.2 352.256 65.5C349.956 66.3 348.756 68.1 346.456 68.9C347.956 70.2 350.356 70.8 351.756 71.2H352.756C358.056 70.9 365.956 67.6 370.156 64.5C371.056 63.8 373.056 62.8 373.956 62.4C374.856 62.1 376.756 61.1 377.756 61.1ZM358.156 44.3C356.856 45.2 355.556 44.8 354.756 45.2C351.856 46.8 350.256 49.8 347.556 51C345.756 54.3 341.256 60 341.156 65.1C342.656 65.2 344.456 64.4 345.056 64.1C346.256 63.4 346.956 63 347.956 62.2C350.956 59.8 354.856 52.9 356.656 50C357.556 48.6 358.656 47.1 358.656 45.2C358.556 44.9 358.556 44.3 358.156 44.3ZM435.983 66.6C434.683 68.1 430.383 67.8 429.283 69.9C429.083 69.2 425.983 70.7 425.883 71.3C423.483 72.6 420.283 73.1 417.683 74.2C417.183 75.3 416.283 74.4 415.283 74.7C415.083 74.8 414.083 75.6 413.883 75.7C411.383 76.1 408.783 75.6 406.683 76.1C406.383 74.8 404.683 74.9 404.783 73.3C404.383 71.5 404.683 69.8 405.083 68.9C405.983 67 408.483 62.9 410.083 61.7C413.183 59.1 416.683 53 419.983 50.6C420.283 49.5 421.383 49.1 422.383 48.7C422.483 47.3 423.883 47.3 424.283 46.3C425.183 45.7 425.883 45 426.683 44.3C427.583 43.9 427.283 42.4 429.083 42.9C431.083 42.7 430.383 45.1 431.483 45.8C430.983 48.8 427.983 49.3 427.183 52C424.683 52.9 424.183 55.9 422.283 57.3C419.783 58.3 417.483 63.2 415.283 64.6C414.083 66.7 411.383 67.4 410.983 70.4C412.983 71.7 415.983 70 417.283 68.9C420.883 68.6 423.683 67 426.383 65.6C428.983 64.2 431.383 63.1 433.983 61.6C435.983 60.8 435.983 59.4 437.683 58.4C439.783 57.8 441.783 56 444.283 55.8C445.383 58.9 443.583 61.9 439.083 64.2C438.383 65.2 436.783 65.7 435.983 66.6ZM444.583 20.9C444.483 16.8 444.483 12.8 449.383 13.7C450.383 15.6 450.683 18.2 450.883 20.9C449.583 22.6 446.183 21.7 444.583 20.9ZM491.585 61.3C489.585 63 485.785 65.1 483.585 66.1C481.885 66.7 481.485 67.5 478.785 68.7C477.085 70.2 476.185 69.8 474.385 71.2C470.685 73.8 466.085 74.1 462.185 76.5C459.385 76.6 455.685 77.8 453.485 75.5C453.385 73.1 454.185 71.2 454.985 69.8C455.085 69.6 454.785 68.9 454.985 68.8C455.485 68.4 455.085 68 455.485 67.4C455.585 67.1 456.185 67.3 456.385 66.9C456.885 66.1 456.885 65.6 457.385 65C457.685 64.5 458.385 64.1 458.785 63.5C458.885 63.4 458.685 62.7 458.785 62.6C459.285 62.2 459.385 62.1 459.785 61.6C460.785 60.2 463.885 54.3 465.085 52.1C461.085 53.5 452.385 60 449.385 62.7C448.485 63.6 446.985 64.6 446.385 65.7C444.185 67.1 443.485 69.7 441.385 71.2C439.785 71.3 439.985 73.3 438.485 73.6C437.485 74.3 436.685 75.3 435.585 76C433.085 75.7 432.485 77.3 431.185 75.5C430.985 73.1 432.285 72.2 433.085 70.7C434.385 69.8 435.085 68.2 435.985 66.9C437.485 64 441.585 58.4 442.785 55C443.185 53.3 444.985 44.9 445.485 43.7C446.185 42 447.285 42.2 449.685 42.6C451.385 44.2 449.685 53 448.485 55C449.185 55.3 448.485 55.5 448.485 56H447.985C448.285 57.4 448.785 55.3 449.485 55.5C450.385 55.5 449.785 54.2 451.085 54.6C451.585 53.3 452.985 52.9 453.485 51.7C454.585 52 454.985 51.2 455.885 50.7C457.185 50 458.285 49.4 459.685 48.3C460.185 48 460.685 47.2 461.185 46.9C463.485 45.3 467.185 44.1 469.385 42.1C471.085 41.3 475.185 39.3 477.585 40.6C478.985 43.7 477.185 46.7 475.185 47.8C475.385 49.7 473.185 49.3 473.285 51.2C471.885 51.4 472.185 53.3 470.885 53.6C470.185 56.3 466.685 61.3 465.085 63C464.485 64.3 463.885 65.4 463.085 66.4C461.685 66.6 462.185 68.7 461.185 69.3C461.985 70.6 462.985 68.2 464.085 68.3C465.085 67.9 466.685 68.6 467.485 67.9C468.785 67.8 468.785 67.3 469.885 67C475.085 64.8 476.685 65.2 480.985 62.1C483.085 61.3 482.885 61.5 484.585 60.3C485.785 59.5 486.385 58.8 487.085 58.1C487.885 57.8 489.285 56.6 489.985 56.3C491.885 55.3 493.385 53.7 496.285 53.6C496.785 58.3 495.685 60.2 494.185 60.3C493.285 60.3 491.685 60.9 491.585 61.3ZM525.431 75.1C523.531 75.1 524.231 74.1 523.331 73.6C523.431 69.2 526.331 67.7 528.131 65C528.431 63.4 530.031 62.7 530.931 61.1C531.731 59.8 532.931 58.2 535.331 55.4C535.631 55 536.431 54.8 536.731 54.4C537.031 53.9 536.831 53.4 537.231 53C537.831 52.3 538.531 51.8 539.131 51C540.331 49.5 540.831 47.4 542.931 46.7V46.4C542.931 44.4 544.931 44.6 545.831 43.4C546.731 40.1 549.331 38.6 550.631 35.7C553.431 35.2 554.331 31 554.931 30.9C555.131 31 555.331 31 555.431 31C556.231 31 556.331 30.4 557.031 30.4C557.931 30.4 558.231 32.1 558.231 32.5C558.231 34.1 556.931 35.6 555.931 36.6C558.531 35.7 561.331 35 564.531 34.7C570.531 32.3 576.731 29.7 582.331 26.6C587.631 23.6 593.931 21.2 596.231 15C595.431 11.9 592.831 12.1 590.631 12.1C581.631 12.1 575.031 14.5 566.931 15.5C559.631 17.9 552.631 20.7 546.331 24.2C545.131 25.6 543.231 27.7 543.231 28.8C543.231 30.6 544.231 31.7 544.231 32.9C544.231 33.4 544.231 34.2 543.431 34.2C539.631 34.2 540.531 29.6 539.631 26.6C539.831 22.4 544.131 20.9 546.831 18.4C549.031 17.6 551.731 17.2 553.031 15.5H555.431C558.831 13 564.631 12.9 568.431 10.7C574.131 10.3 579.731 7.8 585.931 7.8H587.831C589.131 7.8 590.531 7.7 592.031 7.7C593.331 7.7 594.731 7.7 596.231 7.8C596.531 8.49999 597.231 8.7 598.131 8.8C599.631 10.2 601.031 13.7 601.031 16.3C601.031 19.4 594.731 24.9 589.531 27.5C589.331 27.6 589.231 28.4 589.031 28.5C585.831 29.9 581.531 32 578.031 33.8C579.031 35.2 580.731 34.5 582.331 35.2C582.631 35.3 583.031 36.1 583.231 36.2C584.131 36.5 585.431 36.7 586.131 37.1C587.931 38.2 589.531 41.1 589.531 42.8C589.531 48.3 582.231 54.3 580.831 54.9C578.731 56.3 577.131 58.3 574.631 59.2C573.331 59.7 573.331 61.4 571.731 61.6C565.331 65.8 557.331 70.2 550.131 72.6C549.731 73.7 546.331 74.1 543.931 75C541.731 76.4 541.531 75.9 540.131 76.5C539.831 76.6 538.831 77.4 538.631 77.4C537.231 77.9 535.631 77.7 534.331 78.4H533.531C531.731 78.4 530.631 79.2 529.131 79.2C527.431 79.2 526.031 77.9 526.031 77.1C526.031 75.9 526.631 75.3 527.131 74.6C526.631 74.9 526.031 75.1 525.431 75.1ZM584.231 42.4C582.231 39 577.731 39.9 572.731 39.5C571.231 39.4 570.131 39.4 569.131 39.4C565.731 39.4 561.031 40.9 556.431 42.4C554.831 42.9 553.131 42.9 552.031 43.4C551.431 43.6 551.231 44.6 550.731 44.6C550.531 44.6 550.331 44.5 550.131 44.3C549.231 45.2 549.131 47.2 547.231 47.2H546.831C546.731 48.1 545.431 51 545.231 51C543.431 51 544.031 53.3 542.531 53.4C541.731 54.6 541.031 55.8 540.531 57.3C537.431 57.3 536.931 62.2 534.831 63C533.431 63.6 533.931 66.1 532.431 66.4C531.431 67.3 531.331 69.2 530.031 69.8C530.131 70.2 530.131 70.5 530.131 70.7C530.131 72.4 528.931 72.8 528.131 73.6H528.731C532.331 73.6 534.431 72.2 537.931 72.2H539.131C542.031 70 546.831 69.6 549.731 67.4C552.331 67.4 552.831 65.4 555.431 65.4C557.031 62.6 563.031 62.8 565.031 59.7C567.031 59.1 568.631 58.1 569.831 56.8C573.231 54.9 575.731 52.2 579.431 50.6C580.531 47.3 584.231 46.9 584.231 42.4ZM624.272 66.6C622.972 68.1 618.672 67.8 617.572 69.9C617.372 69.2 614.272 70.7 614.172 71.3C611.772 72.6 608.572 73.1 605.972 74.2C605.472 75.3 604.572 74.4 603.572 74.7C603.372 74.8 602.372 75.6 602.172 75.7C599.672 76.1 597.072 75.6 594.972 76.1C594.672 74.8 592.972 74.9 593.072 73.3C592.672 71.5 592.972 69.8 593.372 68.9C594.272 67 596.772 62.9 598.372 61.7C601.472 59.1 604.972 53 608.272 50.6C608.572 49.5 609.672 49.1 610.672 48.7C610.772 47.3 612.172 47.3 612.572 46.3C613.472 45.7 614.172 45 614.972 44.3C615.872 43.9 615.572 42.4 617.372 42.9C619.372 42.7 618.672 45.1 619.772 45.8C619.272 48.8 616.272 49.3 615.472 52C612.972 52.9 612.472 55.9 610.572 57.3C608.072 58.3 605.772 63.2 603.572 64.6C602.372 66.7 599.672 67.4 599.272 70.4C601.272 71.7 604.272 70 605.572 68.9C609.172 68.6 611.972 67 614.672 65.6C617.272 64.2 619.672 63.1 622.272 61.6C624.272 60.8 624.272 59.4 625.972 58.4C628.072 57.8 630.072 56 632.572 55.8C633.672 58.9 631.872 61.9 627.372 64.2C626.672 65.2 625.072 65.7 624.272 66.6ZM632.872 20.9C632.772 16.8 632.772 12.8 637.672 13.7C638.672 15.6 638.972 18.2 639.172 20.9C637.872 22.6 634.472 21.7 632.872 20.9ZM679.874 61.3C677.874 63 674.074 65.1 671.874 66.1C670.174 66.7 669.774 67.5 667.074 68.7C665.374 70.2 664.474 69.8 662.674 71.2C658.974 73.8 654.374 74.1 650.474 76.5C647.674 76.6 643.974 77.8 641.774 75.5C641.674 73.1 642.474 71.2 643.274 69.8C643.374 69.6 643.074 68.9 643.274 68.8C643.774 68.4 643.374 68 643.774 67.4C643.874 67.1 644.474 67.3 644.674 66.9C645.174 66.1 645.174 65.6 645.674 65C645.974 64.5 646.674 64.1 647.074 63.5C647.174 63.4 646.974 62.7 647.074 62.6C647.574 62.2 647.674 62.1 648.074 61.6C649.074 60.2 652.174 54.3 653.374 52.1C649.374 53.5 640.674 60 637.674 62.7C636.774 63.6 635.274 64.6 634.674 65.7C632.474 67.1 631.774 69.7 629.674 71.2C628.074 71.3 628.274 73.3 626.774 73.6C625.774 74.3 624.974 75.3 623.874 76C621.374 75.7 620.774 77.3 619.474 75.5C619.274 73.1 620.574 72.2 621.374 70.7C622.674 69.8 623.374 68.2 624.274 66.9C625.774 64 629.874 58.4 631.074 55C631.474 53.3 633.274 44.9 633.774 43.7C634.474 42 635.574 42.2 637.974 42.6C639.674 44.2 637.974 53 636.774 55C637.474 55.3 636.774 55.5 636.774 56H636.274C636.574 57.4 637.074 55.3 637.774 55.5C638.674 55.5 638.074 54.2 639.374 54.6C639.874 53.3 641.274 52.9 641.774 51.7C642.874 52 643.274 51.2 644.174 50.7C645.474 50 646.574 49.4 647.974 48.3C648.474 48 648.974 47.2 649.474 46.9C651.774 45.3 655.474 44.1 657.674 42.1C659.374 41.3 663.474 39.3 665.874 40.6C667.274 43.7 665.474 46.7 663.474 47.8C663.674 49.7 661.474 49.3 661.574 51.2C660.174 51.4 660.474 53.3 659.174 53.6C658.474 56.3 654.974 61.3 653.374 63C652.774 64.3 652.174 65.4 651.374 66.4C649.974 66.6 650.474 68.7 649.474 69.3C650.274 70.6 651.274 68.2 652.374 68.3C653.374 67.9 654.974 68.6 655.774 67.9C657.074 67.8 657.074 67.3 658.174 67C663.374 64.8 664.974 65.2 669.274 62.1C671.374 61.3 671.174 61.5 672.874 60.3C674.074 59.5 674.674 58.8 675.374 58.1C676.174 57.8 677.574 56.6 678.274 56.3C680.174 55.3 681.674 53.7 684.574 53.6C685.074 58.3 683.974 60.2 682.474 60.3C681.574 60.3 679.974 60.9 679.874 61.3ZM713.696 65.2C715.196 66.4 713.296 67.3 714.196 68.4C711.796 69.5 710.696 70.8 709.096 71.6C708.096 72.1 706.396 73.6 704.796 74.1C704.496 74.1 702.996 74.8 702.696 75C702.096 75.2 701.996 75.6 700.796 75.9C700.196 76.1 698.396 76.7 697.496 76.9C695.996 77.3 697.596 76.6 695.496 77.1C694.496 77.3 693.596 77.5 692.596 78.1C690.496 77.2 686.896 77.7 683.996 77.6C683.396 76.6 681.896 76.5 680.596 76.1C679.396 74.1 676.796 72.3 676.296 68.9C675.896 66.4 676.596 63.9 677.296 61.3C678.496 58.8 679.196 54.4 680.596 53.1C682.996 49.2 684.596 44.5 687.396 41.1C686.696 40.3 684.996 40.4 683.496 40.6C682.396 40.8 679.996 41.3 677.796 41.6C674.696 41.9 670.596 43.4 669.596 40.1C669.396 38.2 672.096 39.1 672.996 38.2C673.896 37.4 676.096 37.8 676.796 36.8C681.796 36.5 686.396 35.8 691.196 35.3C691.996 35.2 692.696 34.4 693.096 33.9C693.396 33.5 693.296 32.9 693.596 32.5C694.296 31.6 696.396 30 697.396 28.6C699.396 26.2 700.896 23.5 702.696 20.9C704.396 19.7 704.196 16.7 707.496 17.1C709.496 17.1 707.896 20.5 708.996 21.4C706.596 26.1 702.396 28.9 700.796 34.4C700.996 35.4 703.196 34.6 704.196 34.9C715.296 33.9 727.096 33.4 738.196 32.5C739.396 33.1 741.096 33.9 739.896 35.4C737.396 35.6 735.296 35.9 735.396 35.8C732.596 35.7 730.796 36.6 727.696 36.3C725.596 37.5 723.696 36.7 720.996 37.7C719.096 37.8 717.396 37.7 716.196 37.3C712.896 38.8 712.696 37.2 709.396 38.2C707.996 38.6 707.996 38.6 706.596 38.2C705.696 38.6 704.796 39 703.696 39.2C702.496 39.4 700.096 37.2 698.396 39.2C698.496 40.2 696.696 39.4 695.996 39.7C694.896 42.5 692.296 43.9 691.196 46.9C688.796 48.6 688.996 51.5 686.396 53.1C686.496 54.4 685.096 55 684.496 56C683.796 57 683.796 58.6 682.596 59.3C681.996 63.1 680.396 66.2 682.096 69.9C683.196 70.7 683.896 71.5 684.996 71.8C685.396 71.9 685.296 72.2 685.396 72.3C688.596 73.8 692.996 72.3 696.496 71.8C697.996 71.4 700.396 71 701.996 69.6C702.096 69.5 704.696 68.2 704.796 68.2C705.596 67.8 706.196 67.1 707.096 66.7C707.896 66.4 709.196 66.4 709.996 66.2C710.496 65.1 712.296 65.4 713.696 65.2ZM768.464 56.7C768.464 56.7 769.664 60.2 769.964 60.1C768.264 61 766.364 63.5 764.764 64.3C763.064 65.1 763.464 65.8 761.764 66.7C760.064 67.6 758.764 68.9 757.064 69.8C756.164 70.2 755.064 70.2 754.164 70.7C753.164 71.3 752.964 71.8 751.764 71.7C750.064 73.4 746.964 72.9 745.564 74.9C742.064 75.3 739.664 75.1 736.364 75.7C736.364 74.7 734.364 75.5 733.564 75.2C733.464 74 731.664 74.5 731.564 73.3C730.664 73.2 731.464 71.2 730.164 71.4C728.764 71.2 728.364 72.6 727.264 72.8C725.964 73.2 724.064 74.2 722.464 75.2C721.764 75.7 719.164 76.2 717.664 77.2C716.964 77.6 713.064 78.7 711.464 78.6C711.664 78.6 710.064 77.6 709.064 78.1C706.764 76 705.564 72.8 706.664 68.5C707.864 67.2 708.564 65.3 709.064 63.2C710.564 61.9 711.464 59.9 712.864 58.4C715.264 55.4 718.464 53.1 721.064 50.3C722.764 49.2 724.364 48.1 725.364 46.4C727.864 46.3 728.564 44.5 730.164 43.6C732.064 42.7 734.464 42.4 735.464 40.7C739.864 40.1 742.664 37.9 746.964 37.3C750.464 38 751.964 41.5 750.764 45.5C749.964 46.4 749.364 47.5 747.964 47.9C748.164 48.9 746.964 48.6 746.964 49.3C746.864 50 745.764 49.7 745.064 49.8C743.264 47.3 746.364 46.2 746.464 44C744.064 42.8 742.364 45 739.264 44.5C737.864 45.5 735.964 45.7 734.464 46.4C733.064 47.2 732.264 48.5 730.664 48.8C727.964 50.4 726.164 53 722.964 54.1C721.664 56 720.164 57.7 718.664 59.4C717.464 59.8 717.164 61.1 716.264 61.8C715.364 62.5 715.264 64 713.864 64.2C713.064 67.3 711.264 69.2 710.964 72.8C713.864 74.5 716.464 72 719.164 71.9C719.164 71 719.964 71.3 720.564 70.9C721.164 70.6 721.464 70.3 721.964 70C722.864 69.5 724.964 69.5 724.864 68C726.064 68.1 727.164 68.1 727.764 67.5C728.864 67.4 728.664 65.9 730.164 66.1C730.564 64.1 731.864 63 732.064 60.8C733.064 59.7 734.464 59 734.464 57C738.364 55.7 738.464 50.7 744.064 51.2C745.264 51.7 745.264 53.3 745.964 54.1C746.264 57.1 743.664 57.2 743.564 59.9C742.064 60.7 741.164 62.3 740.264 63.7C738.964 64.2 738.264 65.2 737.364 66.1C736.664 66.8 734.764 67.1 735.464 69C734.964 70.7 737.564 69.5 737.864 70.4C738.664 70 739.864 70.2 740.764 70C742.364 69.5 743.564 69.9 745.064 69.1C746.564 68.4 748.364 67.9 749.864 67.2C752.764 65.9 755.564 64.7 758.464 63.4C759.664 62 761.064 61.3 762.464 60.5C764.464 59.4 766.164 58 768.464 56.7ZM816.843 61.3C814.843 63 811.043 65.1 808.843 66.1C807.143 66.7 806.743 67.5 804.043 68.7C802.343 70.2 801.443 69.8 799.643 71.2C795.943 73.8 791.343 74.1 787.443 76.5C784.643 76.6 780.943 77.8 778.743 75.5C778.643 73.1 779.443 71.2 780.243 69.8C780.343 69.6 780.043 68.9 780.243 68.8C780.743 68.4 780.343 68 780.743 67.4C780.843 67.1 781.443 67.3 781.643 66.9C782.143 66.1 782.143 65.6 782.643 65C782.943 64.5 783.643 64.1 784.043 63.5C784.143 63.4 783.943 62.7 784.043 62.6C784.543 62.2 784.643 62.1 785.043 61.6C786.043 60.2 789.143 54.3 790.343 52.1C786.343 53.5 777.643 60 774.643 62.7C773.743 63.6 772.243 64.6 771.643 65.7C769.443 67.1 768.743 69.7 766.643 71.2C765.043 71.3 765.243 73.3 763.743 73.6C762.743 74.3 761.943 75.3 760.843 76C758.343 75.7 757.743 77.3 756.443 75.5C756.243 73.1 757.543 72.2 758.343 70.7C759.643 69.8 760.343 68.2 761.243 66.9C762.743 64 766.843 58.4 768.043 55C768.443 53.3 770.243 44.9 770.743 43.7C771.443 42 772.543 42.2 774.943 42.6C776.643 44.2 774.943 53 773.743 55C774.443 55.3 773.743 55.5 773.743 56H773.243C773.543 57.4 774.043 55.3 774.743 55.5C775.643 55.5 775.043 54.2 776.343 54.6C776.843 53.3 778.243 52.9 778.743 51.7C779.843 52 780.243 51.2 781.143 50.7C782.443 50 783.543 49.4 784.943 48.3C785.443 48 785.943 47.2 786.443 46.9C788.743 45.3 792.443 44.1 794.643 42.1C796.343 41.3 800.443 39.3 802.843 40.6C804.243 43.7 802.443 46.7 800.443 47.8C800.643 49.7 798.443 49.3 798.543 51.2C797.143 51.4 797.443 53.3 796.143 53.6C795.443 56.3 791.943 61.3 790.343 63C789.743 64.3 789.143 65.4 788.343 66.4C786.943 66.6 787.443 68.7 786.443 69.3C787.243 70.6 788.243 68.2 789.343 68.3C790.343 67.9 791.943 68.6 792.743 67.9C794.043 67.8 794.043 67.3 795.143 67C800.343 64.8 801.943 65.2 806.243 62.1C808.343 61.3 808.143 61.5 809.843 60.3C811.043 59.5 811.643 58.8 812.343 58.1C813.143 57.8 814.543 56.6 815.243 56.3C817.143 55.3 818.643 53.7 821.543 53.6C822.043 58.3 820.943 60.2 819.443 60.3C818.543 60.3 816.943 60.9 816.843 61.3Z" fill="#FEFAEF"/>
</svg>
