<svg width="728" height="340" viewBox="0 0 728 340" fill="none" xmlns="http://www.w3.org/2000/svg">
<path d="M278.212 199.586C279.658 200.851 278.61 201.242 279.887 202.13C277.709 204.146 277.946 206.034 276.171 207.47C274.647 209.166 274.942 209.113 273.069 210.566C272.322 212.63 270.255 213.001 268.712 214.598C266.569 216.811 262.743 219.834 262.528 219.771C261.4 220.278 258.111 222.9 257.69 223.382C255.577 224.065 253.83 225.09 251.655 225.988C250.527 226.495 250.552 227.202 248.583 227.554C247.058 229.25 242.861 230.206 240.204 230.683C237.546 231.159 235.739 231.28 235.068 227.54C234.274 223.11 236.384 219.582 237.208 215.676C237.056 215.398 236.94 215.317 236.842 215.335C236.35 215.423 235.711 216.96 235.317 217.031C235.12 217.066 235.332 218.247 235.135 218.282C234.348 218.424 234.128 220.597 232.848 220.826C232.75 220.844 232.553 220.879 232.437 220.798C231.574 222.782 228.969 223.554 227.989 225.456C225.884 226.748 224.261 228.461 222.388 229.915C220.846 231.512 218.85 232.276 217.772 234.197C215.023 235.299 212.035 235.632 209.867 237.138L204.65 238.074C203.302 236.791 201.624 235.365 201.377 233.987C200.795 230.739 201.605 228.46 201.389 225.553C204.297 221.374 205.807 214.499 209.793 212.362C210.558 210.397 212.6 209.319 213.249 207.273C213.463 207.336 213.66 207.3 213.857 207.265C214.94 207.071 215.238 205.9 215.856 205.383C216.752 204.714 218.165 204.664 218.463 203.493C220.73 201.969 222.628 201.222 224.142 200.036C225.119 199.251 227.106 198.997 227.716 197.871C229.829 197.188 232.272 196.648 234.152 195.803C238.178 195.589 242.014 196.019 245.07 197.198C249.2 190.768 252.679 183.541 255.996 176.545C257.33 172.649 260.404 169.964 261.389 165.825C262.502 164.102 264.196 162.782 264.381 160.412C264.732 159.537 266.127 159.388 265.88 158.01L265.827 157.715C266.794 157.44 266.466 156.178 267.549 155.984L267.942 155.913C268.314 154.018 269.132 152.347 269.95 150.676C271.699 148.534 274.511 147.217 275.117 144.365L276.495 144.118C277.381 143.959 278.087 143.934 278.552 144.257L278.605 144.553C278.693 145.045 279.167 144.858 279.256 145.35C279.891 148.894 276.794 149.754 277.303 153.726C276.274 154.216 276.306 155.531 275.276 156.02C275.395 158.945 273.941 161.035 273.112 163.215C272.33 165.083 271.436 168.595 269.815 169.191C269.721 174.897 265.912 178.018 264.442 182.854C262.029 185.826 257.798 193.392 256.322 193.656C256.125 193.692 255.928 193.727 255.713 193.664C256.119 195.928 252.235 196.929 252.416 199.64C249.387 202.012 248.228 208.01 245.767 208.452C245.57 208.487 245.373 208.522 245.159 208.459C244.099 210.478 243.503 212.82 241.844 214.336C242.326 218.72 239.539 220.744 239.887 224.948C240.288 225.486 241.012 225.559 241.701 225.436C244.162 224.995 244.748 223.162 247.012 222.757L247.701 222.633C249.897 220.715 251.862 221.48 254.013 219.876C256.262 218.253 256.216 218.566 258.634 217.32C262.499 213.376 261.28 214.509 265.24 211.665C267.141 209.8 267.201 210.704 268.539 208.534C271.235 207.136 270.584 206.338 273.315 205.137C275.18 203.076 276.972 201.739 278.212 199.586ZM270.887 158.738C269.746 160.872 268.257 162.765 267.098 164.802C266.568 165.811 266.368 166.964 265.74 167.991C265.497 168.34 263.541 171.027 263.836 170.974C262.95 171.133 263.525 173.773 262.344 173.985L262.049 174.038C261.95 174.055 261.87 174.171 261.887 174.27C262.152 175.746 260.698 177.836 259.274 178.396C259.68 180.66 257.8 181.505 257.759 183.544C257.194 184.357 256.164 184.846 255.17 185.532C255.321 185.81 255.356 186.007 255.392 186.204C255.603 187.385 253.678 188.543 253.942 190.019C253.978 190.216 254.21 190.378 254.639 190.504C256.514 187.933 258.847 185.076 260.033 182.628C261.301 180.064 265.087 175.118 265.034 174.823C265.017 174.725 264.865 174.447 264.83 174.25C264.777 173.955 265.645 173.698 265.381 172.221C265.186 171.138 271.515 161.673 271.074 159.212C271.039 159.015 271.003 158.818 270.887 158.738ZM241.755 203.075C241.614 202.288 239.971 201.058 238.495 201.323C238.336 200.437 236.196 201.532 236.107 201.04C235.966 200.253 236.771 200.21 235.492 200.439L234.311 200.651C231.259 201.198 228.904 202.23 226.683 203.441C226.585 203.459 226.655 203.853 226.378 204.004C224.058 205.233 221.731 205.853 220.196 208.059C210.966 215.505 207.035 224.744 206.694 225.109C206.161 227.237 204.932 228.88 205.461 231.833C205.673 233.014 206.264 232.908 206.953 232.784C207.74 232.643 208.573 232.189 209.262 232.065C209.656 231.995 210.067 232.023 210.398 232.167C211.831 231.097 213.149 229.946 215.279 229.361C216.579 228.112 217.861 226.764 220.072 226.063C224.27 221.145 230.906 217.923 234.175 212.359C234.273 212.341 234.389 212.422 234.488 212.404C235.866 212.157 237.196 209.379 237.285 209.871C237.267 209.773 237.232 209.576 237.098 209.397C238.602 208.72 242.038 204.65 241.755 203.075ZM306.663 203.323C307.91 201.779 311.048 198.879 311.03 198.781C311.013 198.683 312.981 202.292 312.981 202.292C312.981 202.292 310.189 206.552 310.055 206.372C305.519 210.538 301.455 215.636 295.125 218.295C292.028 219.155 288.396 219.298 286.079 219.409C285.077 219.487 284.8 219.638 283.629 219.34C283.414 219.277 283.558 218.946 283.048 218.936C281.769 219.166 280.762 217.517 279.682 216.594C279.097 214.463 279.771 213.123 279.748 211.299C281.841 207.672 282.7 203.963 285.141 200.579C284.574 198.547 283.668 195.763 282.553 194.642C279.822 195.843 273.752 209.021 271.138 210.303C271.138 210.303 267.135 208.379 267.251 208.46C268.498 206.915 270.538 202.994 271.641 201.78C272.656 200.074 276.297 192.615 277.909 191.411C277.814 190.311 280.611 187.777 281.274 186.947C281.661 186.268 280.932 184.469 283.221 184.769C285.59 184.954 285.842 188.058 286.695 190.547C287.694 191.587 288.307 193.306 289.324 194.444C289.336 196.779 291.383 197.427 291.736 199.396C290.85 199.555 291.294 200.898 291.087 201.443C290.799 202.104 290.181 202.621 289.956 203.068C289.367 206.018 287.888 207.401 286.835 210.028C286.59 211.494 284.72 211.83 285.636 214.104C287.7 214.851 290.688 214.518 293.785 213.658C299.191 212.079 303.417 206.75 306.663 203.323ZM348.607 194.481C348.643 194.678 349.243 198.025 349.036 198.57C347.983 201.197 336.286 211.32 328.992 213.136C322.861 214.642 316.888 214.189 312.689 212.301C310.372 212.411 309.108 209.895 308.987 208.088C308.24 206.19 307.208 203.835 307.393 201.465C307.393 201.465 307.751 201.198 307.698 200.902C307.817 199.865 308.545 194.858 309.638 194.154C309.883 192.688 310.11 191.123 311.4 190.384C312.006 187.532 314.452 185.874 315.424 183.363C317.87 181.706 320.217 180.066 321.735 177.762C325.233 177.439 326.293 175.42 329.559 174.936C331.131 175.772 331.459 177.034 331.696 178.922C331.837 179.709 331.605 179.548 331.478 179.977C331.208 180.736 331.705 182.374 331.077 183.401C331.765 187.24 328.882 192.126 329.204 195.624C327.95 196.56 327.336 198.803 326.645 200.045C325.953 201.287 324.645 201.927 324.284 203.313C322.162 204.506 321.298 206.49 319.175 207.683C320.881 208.698 323.35 208.865 324.798 209.012L325.782 208.835C330.946 207.604 338.14 202.962 341.727 199.169C342.489 198.321 344.281 196.984 345.096 196.432C345.929 195.977 347.623 194.658 348.607 194.481ZM326.35 181.404C325.229 182.52 323.879 182.355 323.162 182.89C320.59 184.977 319.545 188.212 317.099 189.87C315.91 193.436 312.486 199.841 313.288 204.878C314.782 204.712 316.413 203.607 316.95 203.206C318.008 202.305 318.626 201.788 319.469 200.824C321.999 197.932 324.62 190.452 325.879 187.28C326.518 185.743 327.336 184.072 327.001 182.202C326.85 181.924 326.744 181.334 326.35 181.404ZM403.841 180.107C403.841 180.107 405.64 183.34 405.918 183.189C404.403 184.375 402.974 187.171 401.541 188.241C400.009 189.328 400.526 189.947 399.012 191.132C397.497 192.318 396.447 193.827 394.932 195.013C394.117 195.566 393.034 195.76 392.237 196.411C391.358 197.178 391.25 197.706 390.051 197.819C388.678 199.792 385.538 199.847 384.513 202.063C381.139 203.074 378.741 203.301 375.599 204.474C375.422 203.49 373.595 204.63 372.754 204.476C372.444 203.313 370.761 204.123 370.45 202.959C369.547 203.019 369.981 200.91 368.737 201.336C367.324 201.386 367.177 202.835 366.13 203.226C364.921 203.849 363.227 205.169 361.829 206.435C361.228 207.051 358.757 208.002 357.457 209.251C356.839 209.768 353.194 211.539 351.601 211.723C351.798 211.688 350.047 210.986 349.151 211.655C346.516 209.994 344.77 207.056 345.094 202.629C346.046 201.138 346.4 199.144 346.521 196.989C347.768 195.444 348.301 193.317 349.414 191.593C351.247 188.217 353.991 185.388 356.056 182.173C357.535 180.791 358.916 179.425 359.6 177.576C362.043 177.036 362.414 175.141 363.83 173.972C365.542 172.751 367.851 172.032 368.535 170.183C372.76 168.815 375.128 166.156 379.255 164.806C382.823 164.877 384.918 168.058 384.442 172.207C383.814 173.234 383.417 174.422 382.11 175.063C382.483 176.012 381.249 175.929 381.373 176.618C381.398 177.324 380.262 177.223 379.591 177.445C377.378 175.302 380.235 173.672 379.945 171.489C377.371 170.732 376.086 173.197 372.946 173.252C371.745 174.484 369.91 175.016 368.557 175.97C367.32 177.004 366.762 178.425 365.24 179.003C362.865 181.054 361.552 183.931 358.597 185.578C357.653 187.678 356.476 189.616 355.3 191.554C354.189 192.16 354.123 193.492 353.361 194.34C352.599 195.188 352.765 196.682 351.422 197.126C351.182 200.318 349.746 202.506 350.086 206.103C353.24 207.264 355.358 204.345 357.998 203.77C357.839 202.884 358.68 203.038 359.2 202.538C359.737 202.137 359.98 201.789 360.419 201.405C361.216 200.754 363.283 200.384 362.92 198.925C364.119 198.811 365.202 198.617 365.686 197.921C366.752 197.628 366.29 196.187 367.802 196.119C367.842 194.08 368.928 192.768 368.736 190.567C369.527 189.308 370.781 188.372 370.428 186.403C374.037 184.435 373.253 179.496 378.854 179C380.123 179.28 380.405 180.855 381.236 181.519C382.06 184.419 379.519 184.976 379.897 187.651C378.562 188.704 377.958 190.437 377.32 191.974C376.128 192.696 375.616 193.804 374.889 194.848C374.323 195.661 372.506 196.292 373.53 198.038C373.338 199.8 375.686 198.16 376.14 198.993C376.857 198.458 378.073 198.443 378.924 198.087C380.41 197.313 381.662 197.494 382.997 196.442C384.35 195.489 386.034 194.679 387.387 193.725C390.012 191.933 392.556 190.258 395.181 188.467C396.115 186.877 397.369 185.941 398.606 184.906C400.381 183.471 401.807 181.792 403.841 180.107ZM481.67 169.504C479.214 171.671 475.306 178.773 472.269 180.536C467.658 182.582 467.554 184.836 463.059 186.963C459.084 188.59 453.985 192.45 449.132 190.882C446.15 188.979 446.993 184.053 446.787 180.635C447.736 180.262 446.961 178.775 447.91 178.402C447.868 177.597 446.995 176.128 448.461 176.373C447.777 174.261 448.701 173.181 449.178 171.876C449.673 170.67 449.669 168.943 450.378 167.8C450.837 166.397 451.663 165.335 451.56 163.626C448.821 164.219 448.243 166.659 446.539 168.488C443.131 172.147 441.117 176.776 438.145 181.169C437.176 182.562 436.207 183.955 434.907 185.204C433.781 188.555 431.94 191.324 430.234 194.271C427.47 194.157 427.609 196.063 425.193 196.191C424.651 194.866 423.097 194.129 424.593 192.844C424.543 191.431 424.377 189.937 425.487 189.331C426.164 186.873 427.323 184.837 427.535 182.056C429.042 180.261 429.005 177.22 430.28 175.265C430.179 172.438 430.775 170.096 430.791 167.35C428.53 166.638 426.806 169.487 425.506 170.736C423.794 171.957 422.565 173.6 421.469 175.422C419.561 176.679 418.582 178.581 417.504 180.502C415.212 181.319 415.492 184.012 412.869 184.685C411.342 187.499 409.815 190.313 407.475 192.561C407.732 193.429 406.737 194.116 406.432 194.678C406.046 195.357 406.258 196.538 405.291 196.813C405.215 198.656 403.647 199.546 403.206 201.048C400.477 201.131 398.63 203.291 396.934 201.766C396.944 201.256 396.757 200.782 396.669 200.29C396.609 199.386 396.753 199.056 397.318 198.243C399.158 195.475 399.081 190.51 400.664 186.874C401.01 184.272 402.267 182.218 402.73 179.697C403.126 178.508 403.54 177.418 403.462 176.416C403.558 173.554 404.116 172.133 404.468 167.295C404.966 164.971 402.492 167.04 402.568 165.198C401.768 163.004 404.317 163.055 403.866 161.104C405.504 160.607 404.82 158.495 405.628 157.334C405.638 156.824 406.461 156.88 406.355 156.289L407.339 156.113C412.248 156.858 411.333 165.353 409.054 168.505C409.248 169.588 408.967 170.857 409.161 171.94C408.656 173.656 408.853 173.62 408.679 175.48C409.123 176.823 407.893 178.466 408.282 180.631C408.789 181.76 409.402 179.516 410.573 179.814C410.808 178.858 412.204 178.709 412.091 177.51C413.971 176.665 415.021 175.156 415.741 173.503C417.371 172.398 418.654 171.05 419.954 169.801C421.12 168.373 423.099 167.51 423.684 165.678C427.811 164.329 429.018 160.861 433.261 159.592C437.253 162.026 435.833 168.275 436.135 172.792C436.428 173.857 437.309 171.972 437.917 171.965C438.089 171.223 438.493 170.642 439.129 170.224C439.473 168.74 440.843 167.884 441.883 166.885C443.133 164.223 446.159 162.969 447.06 160.064C450.508 158.328 451.867 155.139 455.082 153.241C459.077 154.557 458.561 160.745 456.953 163.675C456.574 168.924 453.64 172.396 453.029 177.484C452.531 179.809 451.721 182.087 452.518 185.399C456.46 186.419 458.32 182.631 461.632 181.834C462.071 181.451 461.93 180.663 462.932 180.585C463.416 179.889 464.401 179.712 465.135 179.276C466.667 178.188 467.258 178.082 469.015 176.548C471.228 174.729 470.292 173.474 472.988 172.077C475.257 169.435 481.23 159.118 481.67 169.504ZM500.085 172.907C499.07 174.613 494.784 175.077 494.072 177.338C493.752 176.684 490.965 178.708 490.973 179.316C488.84 181.019 485.778 182.076 483.413 183.618C483.115 184.789 482.071 184.062 481.139 184.533C480.96 184.667 480.117 185.631 479.938 185.765C477.548 186.6 474.9 186.567 472.921 187.429C472.397 186.203 470.741 186.601 470.557 185.009C469.846 183.308 469.841 181.581 470.076 180.625C470.626 178.596 472.363 174.119 473.726 172.655C476.319 169.549 478.687 162.927 481.512 159.982C481.613 158.847 482.625 158.259 483.539 157.689C483.39 156.293 484.768 156.046 484.985 154.991C485.765 154.241 486.331 153.429 486.995 152.599C487.81 152.046 487.25 150.623 489.11 150.797C491.043 150.247 490.778 152.733 491.984 153.228C492.021 156.269 489.157 157.291 488.846 160.09C486.544 161.417 486.581 164.458 484.958 166.171C482.674 167.597 481.275 172.826 479.357 174.592C478.546 176.871 476.012 178.036 476.148 181.06C478.346 181.987 480.999 179.784 482.084 178.472C485.575 177.541 488.048 175.472 490.459 173.617C492.771 171.78 494.939 170.274 497.234 168.339C499.061 167.198 498.814 165.82 500.311 164.536C502.272 163.575 503.923 161.45 506.348 160.812C507.978 163.669 506.736 166.94 502.712 169.998C502.2 171.106 500.713 171.88 500.085 172.907ZM500.484 126.407C499.662 122.389 498.956 118.452 503.938 118.473C505.257 120.166 506.011 122.672 506.685 125.295C505.705 127.198 502.2 126.912 500.484 126.407ZM553.878 157.877C552.209 159.903 548.84 162.641 546.851 164.013C545.283 164.904 545.031 165.762 542.585 167.42C541.176 169.196 540.22 168.961 538.695 170.657C535.512 173.869 531.037 174.977 527.622 178.027C524.884 178.62 521.454 180.454 518.882 178.578C518.36 176.234 518.812 174.222 519.353 172.703C519.416 172.489 518.997 171.853 519.176 171.719C519.598 171.237 519.133 170.914 519.421 170.253C519.467 169.94 520.093 170.031 520.219 169.602C520.57 168.726 520.482 168.234 520.868 167.555C521.075 167.01 521.693 166.493 521.981 165.831C522.062 165.715 521.741 165.062 521.822 164.946C522.244 164.464 522.325 164.347 522.63 163.785C523.367 162.23 525.377 155.876 526.17 153.498C522.48 155.582 515.064 163.516 512.587 166.703C511.86 167.748 510.561 168.997 510.164 170.185C508.246 171.952 508.016 174.634 506.213 176.482C504.656 176.862 505.206 178.796 503.782 179.356C502.922 180.221 502.311 181.347 501.352 182.23C498.838 182.376 498.53 184.057 496.932 182.514C496.312 180.187 497.433 179.072 497.955 177.454C499.076 176.339 499.483 174.641 500.139 173.202C501.104 170.083 504.151 163.847 504.732 160.289C504.826 158.545 505.115 149.959 505.395 148.69C505.784 146.893 506.902 146.896 509.335 146.866C511.291 148.14 511.171 157.102 510.343 159.283C511.085 159.455 510.431 159.775 510.519 160.267L510.027 160.355C510.569 161.68 510.691 159.525 511.415 159.598C512.301 159.44 511.481 158.266 512.831 158.43C513.094 157.062 514.401 156.421 514.682 155.152C515.817 155.253 516.07 154.395 516.867 153.744C518.024 152.826 519 152.041 520.184 150.711C520.623 150.328 520.974 149.452 521.414 149.068C523.395 147.088 526.825 145.253 528.638 142.896C530.17 141.809 533.852 139.117 536.444 139.973C538.369 142.777 537.127 146.048 535.353 147.483C535.885 149.318 533.649 149.313 534.083 151.165C532.74 151.609 533.37 153.426 532.144 153.951C531.931 156.732 529.369 162.272 528.094 164.227C527.733 165.613 527.336 166.801 526.725 167.927C525.383 168.371 526.246 170.35 525.367 171.117C526.384 172.255 526.945 169.716 528.045 169.621C528.959 169.05 530.657 169.457 531.321 168.627C532.583 168.299 532.495 167.807 533.525 167.317C538.255 164.234 539.9 164.345 543.586 160.535C545.511 159.377 545.35 159.609 546.811 158.128C547.851 157.129 548.318 156.334 548.884 155.521C549.618 155.085 550.784 153.657 551.421 153.238C553.114 151.918 554.308 150.078 557.145 149.468C558.467 154.006 557.719 156.07 556.261 156.434C555.375 156.592 553.906 157.465 553.878 157.877ZM611.769 136.118C612.213 137.46 610.832 138.825 611.687 140.196C608.813 141.727 606.93 143.691 604.188 145.401L603.795 145.472C602.81 145.648 602.558 146.506 601.422 146.405C601.384 147.326 600.66 147.253 600.175 147.95C598.689 148.724 597.356 148.658 596.717 150.195C594.862 151.747 588.161 156.301 586.601 157.8C584.056 159.475 582.366 159.677 580.089 161.711C579.728 163.096 579.51 164.151 578.309 165.383C578.657 165.625 578.907 165.885 578.977 166.279C579.154 167.263 578.589 168.076 578.997 169.221C578.013 169.398 577.035 174.145 576.263 175.503C576.51 176.881 575.689 179.669 575.328 181.055C574.773 181.358 574.387 182.036 574.609 182.708C574.34 186.312 572.704 189.653 572.141 193.31L572.212 193.703C572.423 194.885 570.715 194.988 571.275 196.411C570.464 198.69 570.297 201.158 569.04 203.212C569.297 204.081 564.506 214.185 564.071 216.295C562.86 218.036 561.898 220.037 561.249 222.084C559.401 224.244 557.199 228.398 554.781 229.644C554.509 231.522 547.83 233.938 546.157 234.238L544.86 234.369C544.557 233.814 543.994 233.509 543.305 233.632C541.244 231.767 540.616 228.831 539.092 226.565L539.021 226.171C538.721 224.498 539.163 222.996 538.648 221.26C539.315 219.312 539.57 217.336 539.513 215.314C541.906 209.399 543.076 202.89 547.14 197.793C546.974 196.299 548.165 195.577 549.008 194.613C549.892 191.61 552.133 189.379 553.91 186.826C553.787 186.137 556.21 182.654 556.98 182.415C558.689 178.349 562.832 174.254 565.684 170.897L566.991 170.257C568.274 168.909 569.574 167.66 570.722 166.133L571.333 165.008L572.116 163.14C570.263 163.574 568.007 164.588 566.742 166.034C564.085 166.511 561.604 167.972 558.946 168.448C557.765 168.66 557.033 167.979 555.511 168.556C553.957 167.819 552.708 166.519 551.171 165.88L551.1 165.487C550.888 164.305 550.104 163.329 549.892 162.147C549.309 158.899 550.703 155.906 551.256 152.759C552.97 150.42 554.533 147.803 555.666 145.06L566.629 135.373L568.007 135.126C571.985 132.381 572.81 131.318 577.929 130.401C580.389 129.959 583.279 129.644 585.755 130.42C586.842 131.952 588.773 132.52 589.762 134.07L590.274 136.924C590.68 139.188 587.911 141.31 586.396 142.496C586 143.685 585.916 144.919 585.618 146.09C584.705 146.66 584.664 148.699 584.858 149.782L584.929 150.176L586.216 150.554C586.905 150.431 587.619 151.014 587.692 150.29C590.613 148.445 593.104 146.475 596.292 144.989C596.794 144.391 597.089 144.338 597.476 143.659C598.899 143.099 599.911 142.511 601.085 141.691C601.562 140.386 609.747 136.175 611.519 135.858C611.618 135.84 611.734 135.921 611.769 136.118ZM585.085 137.448C584.661 135.086 579.563 134.984 577.792 135.302C576.709 135.496 571.085 138.13 570.734 139.005C567.827 139.222 562.983 145.069 560.323 146.663C559.916 148.362 558.964 149.853 557.763 151.085C557.275 152.899 556.341 154.489 555.175 155.917C555.296 157.724 554.397 159.511 554.715 161.283C554.838 161.972 555.257 162.608 555.56 163.163C556.713 163.363 557.705 163.794 558.886 163.582C562.036 163.018 564.583 160.224 567.589 159.99C568.495 158.812 569.686 158.09 571.18 157.924C572.564 155.441 574.679 153.639 576.928 152.017C578.219 147.315 579.125 142.174 582.301 138.354C583.429 137.847 583.921 137.758 585.155 137.842L585.085 137.448ZM572.996 169.18C571.322 169.48 556.144 187.949 555.889 189.925C554.407 192.426 552.942 195.025 550.88 197.122C549.779 201.18 545.871 208.281 544.061 213.482C543.313 215.547 544.12 218.348 542.81 220.107C543.078 220.466 543.363 220.922 543.433 221.316L544.528 227.419C544.704 228.403 546.138 227.333 545.794 228.817C546.125 228.961 546.438 229.007 546.832 228.936C548.308 228.671 549.563 227.735 550.835 226.897L551.168 225.923C553.866 223.408 555.591 220.559 558.039 217.783C558.186 216.334 562.907 205.836 563.578 205.614C564.295 205.079 563.056 203.269 564.719 203.479C564.851 200.814 569.692 185.316 570.78 182.886C571.591 180.607 571.962 178.712 572.172 177.049C571.811 174.472 573.74 172.196 573.263 169.538C573.228 169.342 573.291 169.127 572.996 169.18Z" fill="white"/>
<path d="M90.2118 149.299C91.6577 150.564 90.6103 150.955 91.8871 151.844C89.7088 153.86 89.9457 155.748 88.1713 157.183C86.6466 158.879 86.9419 158.826 85.069 160.279C84.3216 162.344 82.2546 162.714 80.7123 164.312C78.5692 166.525 74.7427 169.548 74.5282 169.484C73.4 169.991 70.1111 172.613 69.6895 173.095C67.577 173.779 65.8304 174.803 63.6547 175.701C62.5265 176.208 62.5516 176.915 60.583 177.268C59.0584 178.964 54.8612 179.919 52.2036 180.396C49.546 180.872 47.7389 180.993 47.0682 177.253C46.274 172.824 48.3845 169.296 49.2079 165.389C49.0565 165.111 48.9404 165.031 48.842 165.048C48.3498 165.137 47.7111 166.673 47.3173 166.744C47.1205 166.779 47.3323 167.96 47.1354 167.996C46.348 168.137 46.128 170.31 44.8484 170.539C44.75 170.557 44.5532 170.592 44.4371 170.512C43.5736 172.495 40.9689 173.267 39.9894 175.17C37.8844 176.461 36.2613 178.175 34.3884 179.628C32.8461 181.226 30.8497 181.99 29.7717 183.91C27.0231 185.013 24.0349 185.345 21.8667 186.852L16.6499 187.787C15.3025 186.505 13.6244 185.079 13.3773 183.701C12.7949 180.452 13.6054 178.174 13.3888 175.266C16.2969 171.087 17.8073 164.213 21.7927 162.076C22.5577 160.11 24.5996 159.033 25.2486 156.986C25.4631 157.049 25.66 157.014 25.8568 156.978C26.9396 156.784 27.2376 155.613 27.856 155.096C28.752 154.427 30.1653 154.377 30.4633 153.206C32.73 151.682 34.628 150.935 36.1424 149.75C37.1193 148.965 39.1055 148.71 39.7164 147.585C41.829 146.901 44.2721 146.362 46.1524 145.516C50.1779 145.303 54.0139 145.732 57.07 146.911C61.2 140.481 64.679 133.254 67.9964 126.259C69.3296 122.362 72.404 119.677 73.389 115.539C74.5023 113.815 76.1959 112.495 76.3806 110.126C76.7315 109.25 78.1272 109.101 77.8801 107.723L77.8272 107.428C78.7938 107.153 78.4659 105.891 79.5487 105.697L79.9424 105.626C80.3137 103.731 81.1317 102.06 81.9497 100.39C83.699 98.2474 86.5107 96.9305 87.1169 94.0787L88.4949 93.8316C89.3808 93.6728 90.0875 93.6477 90.5518 93.9708L90.6047 94.2661C90.693 94.7582 91.1675 94.5715 91.2557 95.0637C91.8911 98.6072 88.7943 99.4673 89.3034 103.44C88.2736 103.929 88.3062 105.244 87.2764 105.734C87.3946 108.659 85.9405 110.748 85.1124 112.928C84.3297 114.796 83.4357 118.309 81.8153 118.904C81.721 124.61 77.9121 127.732 76.4424 132.567C74.0292 135.54 69.7981 143.105 68.3216 143.37C68.1247 143.405 67.9279 143.44 67.7134 143.377C68.1193 145.641 64.2351 146.643 64.4163 149.353C61.3874 151.725 60.228 157.724 57.7672 158.165C57.5703 158.2 57.3735 158.236 57.159 158.172C56.0986 160.191 55.5026 162.533 53.8443 164.05C54.3256 168.434 51.539 170.457 51.8865 174.662C52.2877 175.2 53.012 175.273 53.7011 175.149C56.1618 174.708 56.7476 172.876 59.0115 172.47L59.7005 172.346C61.8965 170.429 63.8624 171.194 66.013 169.589C68.2619 167.967 68.2164 168.279 70.6344 167.033C74.499 163.089 73.2798 164.222 77.2401 161.378C79.1408 159.514 79.2012 160.417 80.5392 158.247C83.2348 156.849 82.5838 156.052 85.3147 154.851C87.1802 152.789 88.9723 151.452 90.2118 149.299ZM82.8871 108.451C81.746 110.586 80.2567 112.478 79.0979 114.515C78.5678 115.524 78.3682 116.678 77.7396 117.705C77.4973 118.053 75.5409 120.74 75.8362 120.687C74.9503 120.846 75.5253 123.486 74.3441 123.698L74.0488 123.751C73.9504 123.769 73.8696 123.885 73.8873 123.983C74.152 125.46 72.698 127.549 71.2745 128.109C71.6804 130.373 69.8001 131.218 69.7593 133.257C69.1939 134.07 68.1641 134.559 67.1696 135.246C67.321 135.523 67.3563 135.72 67.3916 135.917C67.6034 137.098 65.6776 138.256 65.9423 139.733C65.9776 139.93 66.2098 140.091 66.6388 140.217C68.5144 137.646 70.8468 134.789 72.0334 132.342C73.3008 129.778 77.0873 124.832 77.0343 124.536C77.0167 124.438 76.8653 124.16 76.83 123.963C76.777 123.668 77.6453 123.411 77.3805 121.934C77.1864 120.852 83.5151 111.386 83.0738 108.925C83.0385 108.729 83.0032 108.532 82.8871 108.451ZM53.7553 152.789C53.6141 152.001 51.9713 150.772 50.4949 151.037C50.336 150.151 48.1957 151.246 48.1075 150.754C47.9663 149.966 48.7713 149.923 47.4918 150.153L46.3106 150.365C43.2593 150.912 40.9044 151.944 38.6833 153.155C38.5849 153.172 38.6555 153.566 38.3778 153.717C36.0583 154.946 33.7312 155.566 32.1964 157.772C22.9657 165.218 19.0346 174.457 18.6939 174.823C18.161 176.95 16.9316 178.593 17.4611 181.546C17.6729 182.727 18.2635 182.621 18.9525 182.498C19.74 182.356 20.5729 181.902 21.2619 181.779C21.6556 181.708 22.067 181.736 22.3976 181.88C23.8313 180.81 25.1489 179.659 27.279 179.074C28.579 177.825 29.8613 176.478 32.0722 175.777C36.2701 170.858 42.9056 167.637 46.1749 162.072C46.2733 162.055 46.3894 162.135 46.4878 162.118C47.8658 161.871 49.1963 159.092 49.2846 159.584C49.2669 159.486 49.2316 159.289 49.0979 159.11C50.6022 158.434 54.0377 154.364 53.7553 152.789ZM139.804 143.455C139.804 143.455 141.603 146.688 141.881 146.537C140.366 147.723 138.937 150.519 137.504 151.588C135.971 152.676 136.489 153.294 134.974 154.48C133.46 155.666 132.41 157.175 130.895 158.361C130.08 158.914 128.997 159.108 128.2 159.759C127.321 160.526 127.213 161.053 126.014 161.167C124.64 163.14 121.501 163.195 120.476 165.411C117.101 166.422 114.704 166.649 111.561 167.822C111.385 166.838 109.558 167.978 108.717 167.824C108.407 166.661 106.723 167.47 106.413 166.307C105.51 166.367 105.944 164.257 104.7 164.684C103.287 164.734 103.14 166.183 102.092 166.574C100.883 167.197 99.1898 168.516 97.7914 169.783C97.1907 170.399 94.7197 171.35 93.4198 172.599C92.8014 173.116 89.1567 174.887 87.5642 175.071C87.7611 175.036 86.0097 174.334 85.1136 175.003C82.4791 173.342 80.7332 170.404 81.0569 165.977C82.0087 164.486 82.3623 162.492 82.4838 160.337C83.7308 158.792 84.2637 156.665 85.377 154.941C87.2098 151.565 89.9536 148.736 92.0186 145.521C93.4978 144.138 94.8785 142.773 95.5628 140.923C98.0059 140.384 98.3772 138.488 99.7932 137.32C101.505 136.099 103.814 135.38 104.498 133.53C108.723 132.163 111.091 129.503 115.218 128.154C118.786 128.225 120.88 131.406 120.405 135.555C119.777 136.582 119.38 137.77 118.073 138.411C118.446 139.36 117.212 139.277 117.336 139.966C117.361 140.672 116.225 140.571 115.554 140.793C113.341 138.65 116.198 137.02 115.908 134.837C113.334 134.079 112.049 136.545 108.909 136.6C107.708 137.831 105.873 138.364 104.52 139.317C103.283 140.352 102.725 141.773 101.203 142.35C98.828 144.402 97.5151 147.279 94.5595 148.926C93.6152 151.026 92.4388 152.964 91.2624 154.902C90.1519 155.507 90.086 156.84 89.3237 157.688C88.5614 158.536 88.7277 160.03 87.385 160.474C87.1447 163.666 85.7083 165.854 86.0484 169.451C89.2029 170.612 91.3208 167.692 93.9608 167.117C93.802 166.232 94.6423 166.386 95.1623 165.886C95.7 165.485 95.9423 165.137 96.3815 164.753C97.1791 164.102 99.2462 163.731 98.883 162.273C100.082 162.159 101.165 161.965 101.649 161.269C102.714 160.976 102.253 159.535 103.764 159.467C103.805 157.428 104.891 156.116 104.699 153.915C105.489 152.656 106.744 151.72 106.391 149.751C110 147.783 109.216 142.844 114.816 142.348C116.086 142.628 116.368 144.203 117.198 144.867C118.023 147.767 115.482 148.324 115.86 150.999C114.525 152.051 113.921 153.785 113.282 155.322C112.091 156.044 111.578 157.152 110.851 158.196C110.286 159.009 108.469 159.639 109.493 161.386C109.301 163.148 111.648 161.508 112.102 162.34C112.819 161.806 114.036 161.791 114.886 161.435C116.373 160.66 117.625 160.842 118.96 159.79C120.313 158.836 121.996 158.026 123.349 157.073C125.974 155.281 128.519 153.606 131.144 151.815C132.078 150.225 133.332 149.289 134.569 148.254C136.343 146.818 137.77 145.14 139.804 143.455ZM132.571 162.734C130.495 159.652 132.068 156.525 132.28 153.744C132.881 153.129 133.346 149.489 133.929 148.775C134.431 148.177 136.39 144.372 136.098 143.307C136.653 143.004 137.075 142.522 137.398 142.057C137.559 141.825 137.552 141.217 137.633 141.101C137.794 140.869 138.438 141.058 138.617 140.925C139.263 139.996 139.973 138.853 139.975 137.735C140.995 137.755 141.311 136.683 141.669 136.415C142.027 136.148 142.505 134.843 142.863 134.575C143.042 134.442 142.999 133.637 143.196 133.601C143.913 133.066 144.802 131.79 147.252 131.858C148.1 132.62 148.867 133.499 149.634 134.377C148.945 138.463 145.568 140.593 144.065 144.113C143.131 145.703 141.19 149.607 140.256 151.197C139.786 153.109 137.691 153.892 138.248 156.433C139.392 157.142 141.353 156.181 141.901 155.27C145.545 153.499 148.975 151.665 151.575 149.167C152.443 148.91 153.519 148.107 154.165 147.179C154.488 146.714 155.043 146.411 155.384 146.046C155.707 145.581 156.262 145.278 156.586 144.814C157.151 144.002 158.961 142.763 160.001 141.763C160.44 141.38 160.781 141.014 161.202 140.532C163.345 138.319 165.027 134.665 166.948 131.781C167.274 130.198 168.064 128.939 169.202 127.922C170.242 126.923 169.692 124.99 172.125 124.96C173.844 124.347 173.659 126.717 174.911 126.898C174.514 132.049 171.197 135.082 169.274 139.085C166.439 142.539 165.926 147.61 163.073 150.966C163.166 153.184 163.045 155.339 161.066 156.202C161.777 157.903 160.649 158.41 161.343 160.013C159.452 161.368 159.518 163.998 159.02 166.322C158.704 167.395 158.371 168.369 158.154 169.424C158.535 170.981 156.112 170.501 157.189 172.543C158.716 173.692 160.117 171.307 161.245 170.8C162.5 169.864 164.095 168.562 165.599 167.885C171.457 164.295 176.942 159.756 183.596 156.633C185.557 155.671 188.232 155.293 189.855 153.58C193.701 153.5 194.736 150.774 197.434 152.221C198.393 155.3 196.351 156.377 193.961 157.212C190.488 158.241 187.335 159.924 184.443 161.357C182.84 162.051 180.028 163.368 178.272 164.902C178.135 165.841 175.596 165.28 175.576 166.3C171.939 168.679 168.425 171.747 164.77 174.028C161.232 176.39 158.076 179.191 154.967 181.679C153.755 183.42 154.07 186.31 152.644 187.988C152.477 190.456 151.729 192.52 150.884 194.602C150.6 196.99 149.505 198.812 149.222 201.199C147.412 202.438 147.924 205.292 146.811 207.016C145.45 211.324 143.856 215.47 142.246 219.518C141.993 220.376 141.857 221.315 141.193 222.145C141.21 222.243 140.887 222.708 140.887 222.708C140.519 223.485 140.97 225.436 139.342 225.423C139.836 228.179 136.982 228.691 137.61 231.626C136.418 232.348 136.138 233.617 134.599 234.096C134.497 235.232 134.628 236.529 134.214 237.62C132.089 239.931 131.142 243.149 128.222 244.993C127.888 245.967 127.341 246.878 127.355 248.095C124.733 248.768 124.2 250.895 122.721 252.278C119.498 253.567 115.709 255.669 112.474 254.624C110.647 251.802 109.179 248.712 108.564 244.149C108.615 241.6 109.63 239.894 109.35 237.201C111.218 234.022 111.363 229.729 113.266 226.746C113.156 224.429 114.786 223.324 115.274 221.51C115.663 219.713 116.498 218.141 117.932 217.071C118.096 215.721 118.591 214.514 118.639 213.083C121.549 211.749 121.227 208.251 123.324 206.351C124.178 204.877 125.084 203.699 125.902 202.028C126.945 199.911 129.552 198.021 130.587 195.295C133.374 193.272 135.429 190.567 138.046 188.167C138.907 187.301 139.669 186.454 140.548 185.686C140.906 185.419 141.507 184.803 141.767 184.554C142.206 184.17 143.11 184.11 143.647 183.708C143.988 183.342 143.928 182.439 144.286 182.171C144.806 181.672 145.53 181.745 146.068 181.344C147.941 179.891 149.652 178.669 151.177 176.974C152.576 171.745 153.975 166.516 155.142 161.125C155.127 159.909 156.371 159.482 156.124 158.104C157.484 157.759 156.309 155.734 156.99 155.003C158.118 154.496 157.755 153.037 157.856 151.901C156.112 151.807 155.527 153.64 154.451 154.442C153.475 155.227 152.051 155.787 150.976 156.589C150.698 156.741 151.046 156.983 150.554 157.071C150.178 157.24 148.386 158.577 147.472 159.148C146.362 159.753 145.054 160.394 143.979 161.196C142.96 161.176 142.752 161.721 142.197 162.024C138.752 162.642 134.966 163.625 132.571 162.734ZM148.303 185.312C147.632 185.534 147.541 186.16 146.521 186.139C145.32 187.371 143.654 188.279 142.702 189.77C140.166 192.054 137.2 194.211 135.243 196.899C131.656 200.691 128.551 204.905 125.795 209.362C124.361 210.432 124.088 212.309 123.119 213.702C123 214.74 122.069 215.211 121.584 215.908C121.117 216.703 120.998 217.74 120.067 218.212C119.271 221.707 117.6 224.852 116.456 228.104C115.232 231.474 114.123 234.923 113.514 238.893C113.559 242.542 113.344 246.442 115.771 248.648C119.582 248.371 120.456 245.878 123.321 244.856C123.828 242.022 126.89 240.965 127.531 238.31C129.152 237.715 128.995 235.711 129.382 235.032C129.993 233.906 131.113 232.791 131.724 231.666C132.946 229.415 134.133 226.967 134.774 224.312C136.468 222.992 136.491 220.855 137.274 218.987C137.976 217.236 138.991 215.53 139.675 213.68C140.457 211.813 140.927 209.9 141.594 207.951C142.278 206.102 143.518 203.949 143.442 201.829C145.111 199.803 144.806 196.403 146.475 194.377C146.965 191.444 147.785 188.656 148.972 186.208C148.803 185.832 148.697 185.241 148.303 185.312Z" fill="white"/>
</svg>
