<svg width="1440" height="1221" viewBox="0 0 1440 1221" fill="none" xmlns="http://www.w3.org/2000/svg">
<rect width="1440" height="1205" fill="#2F5992"/>
<rect width="1440" height="1079" transform="translate(0 126)" fill="#F6D265"/>
<path d="M1131.11 393.6V397H1035.51V257H1129.71V260.4H1052.31V323.2H1124.51V326.6H1052.31V393.6H1131.11Z" fill="white"/>
<path d="M1011.46 328H950.062V397H933.262V257H1017.06V260.4H950.062V324.6H1011.46V328Z" fill="white"/>
<path d="M882.77 397V257H899.57V397H882.77Z" fill="white"/>
<path d="M779.934 397V257H796.734V393.6H866.734V397H779.934Z" fill="white"/>
<path d="M589.301 397V257H631.701C677.701 257 709.501 277 709.501 326.2C709.501 372.6 677.701 397 631.701 397H589.301ZM606.101 393.6H631.701C672.101 393.6 690.501 367.8 690.501 326.2C690.501 282.2 672.101 260.4 631.701 260.4H606.101V393.6Z" fill="white"/>
<path d="M549.764 397L451.764 263.8V397H447.764V257H467.564L552.964 373.2V257H556.964V397H549.764Z" fill="white"/>
<path d="M395.197 348.2L363.197 272.4L333.197 348.2H395.197ZM415.797 397L396.597 351.6H331.997L313.997 397H309.597L364.997 257H374.397L433.797 397H415.797Z" fill="white"/>
<path d="M216.339 397V257H233.139V393.6H303.139V397H216.339Z" fill="white"/>
<path d="M140.292 399C108.892 399 88.2924 384 85.6924 355.8H99.8924C101.492 380.6 114.092 395.8 140.292 395.8C161.092 395.8 179.492 384.8 179.492 365C179.492 347.8 166.292 341.8 144.892 336L127.692 331.4C105.292 325.4 91.6924 316.8 91.6924 294.6C91.6924 269.6 114.092 254 140.692 254C167.692 254 187.092 268.2 190.292 293.2H176.492C174.092 271 162.892 257.2 140.692 257.2C120.092 257.2 103.692 269.6 103.692 287.6C103.692 303 114.092 309.8 133.292 314.8L153.092 320C176.292 326 191.692 334.6 191.692 358.2C191.692 386.4 166.292 399 140.292 399Z" fill="white"/>
<path d="M46.7998 397V257H63.5998V397H46.7998Z" fill="white"/>
<path d="M1217.11 208.6V212H1121.51V72H1215.71V75.4H1138.31V138.2H1210.51V141.6H1138.31V208.6H1217.11Z" fill="white"/>
<path d="M1097.46 143H1036.06V212H1019.26V72H1103.06V75.4H1036.06V139.6H1097.46V143Z" fill="white"/>
<path d="M968.77 212V72H985.57V212H968.77Z" fill="white"/>
<path d="M865.934 212V72H882.734V208.6H952.734V212H865.934Z" fill="white"/>
<path d="M675.301 212V72H717.701C763.701 72 795.501 92 795.501 141.2C795.501 187.6 763.701 212 717.701 212H675.301ZM692.101 208.6H717.701C758.101 208.6 776.501 182.8 776.501 141.2C776.501 97.2 758.101 75.4 717.701 75.4H692.101V208.6Z" fill="white"/>
<path d="M635.764 212L537.764 78.8V212H533.764V72H553.564L638.964 188.2V72H642.964V212H635.764Z" fill="white"/>
<path d="M481.197 163.2L449.197 87.4L419.197 163.2H481.197ZM501.797 212L482.597 166.6H417.997L399.997 212H395.597L450.997 72H460.397L519.797 212H501.797Z" fill="white"/>
<path d="M302.339 212V72H319.139V208.6H389.139V212H302.339Z" fill="white"/>
<path d="M226.292 214C194.892 214 174.292 199 171.692 170.8H185.892C187.492 195.6 200.092 210.8 226.292 210.8C247.092 210.8 265.492 199.8 265.492 180C265.492 162.8 252.292 156.8 230.892 151L213.692 146.4C191.292 140.4 177.692 131.8 177.692 109.6C177.692 84.6 200.092 69 226.692 69C253.692 69 273.092 83.2 276.292 108.2H262.492C260.092 86 248.892 72.2 226.692 72.2C206.092 72.2 189.692 84.6 189.692 102.6C189.692 118 200.092 124.8 219.292 129.8L239.092 135C262.292 141 277.692 149.6 277.692 173.2C277.692 201.4 252.292 214 226.292 214Z" fill="white"/>
<path d="M132.8 212V72H149.6V212H132.8Z" fill="white"/>
<path d="M1217.11 603.6V607H1121.51V467H1215.71V470.4H1138.31V533.2H1210.51V536.6H1138.31V603.6H1217.11Z" fill="white"/>
<path d="M1097.46 538H1036.06V607H1019.26V467H1103.06V470.4H1036.06V534.6H1097.46V538Z" fill="white"/>
<path d="M968.77 607V467H985.57V607H968.77Z" fill="white"/>
<path d="M865.934 607V467H882.734V603.6H952.734V607H865.934Z" fill="white"/>
<path d="M675.301 607V467H717.701C763.701 467 795.501 487 795.501 536.2C795.501 582.6 763.701 607 717.701 607H675.301ZM692.101 603.6H717.701C758.101 603.6 776.501 577.8 776.501 536.2C776.501 492.2 758.101 470.4 717.701 470.4H692.101V603.6Z" fill="white"/>
<path d="M635.764 607L537.764 473.8V607H533.764V467H553.564L638.964 583.2V467H642.964V607H635.764Z" fill="white"/>
<path d="M481.197 558.2L449.197 482.4L419.197 558.2H481.197ZM501.797 607L482.597 561.6H417.997L399.997 607H395.597L450.997 467H460.397L519.797 607H501.797Z" fill="white"/>
<path d="M302.339 607V467H319.139V603.6H389.139V607H302.339Z" fill="white"/>
<path d="M226.292 609C194.892 609 174.292 594 171.692 565.8H185.892C187.492 590.6 200.092 605.8 226.292 605.8C247.092 605.8 265.492 594.8 265.492 575C265.492 557.8 252.292 551.8 230.892 546L213.692 541.4C191.292 535.4 177.692 526.8 177.692 504.6C177.692 479.6 200.092 464 226.692 464C253.692 464 273.092 478.2 276.292 503.2H262.492C260.092 481 248.892 467.2 226.692 467.2C206.092 467.2 189.692 479.6 189.692 497.6C189.692 513 200.092 519.8 219.292 524.8L239.092 530C262.292 536 277.692 544.6 277.692 568.2C277.692 596.4 252.292 609 226.292 609Z" fill="white"/>
<path d="M132.8 607V467H149.6V607H132.8Z" fill="white"/>
<path d="M1350.11 805.6V809H1254.51V669H1348.71V672.4H1271.31V735.2H1343.51V738.6H1271.31V805.6H1350.11Z" fill="white"/>
<path d="M1230.46 740H1169.06V809H1152.26V669H1236.06V672.4H1169.06V736.6H1230.46V740Z" fill="white"/>
<path d="M1101.77 809V669H1118.57V809H1101.77Z" fill="white"/>
<path d="M998.934 809V669H1015.73V805.6H1085.73V809H998.934Z" fill="white"/>
<path d="M808.301 809V669H850.701C896.701 669 928.501 689 928.501 738.2C928.501 784.6 896.701 809 850.701 809H808.301ZM825.101 805.6H850.701C891.101 805.6 909.501 779.8 909.501 738.2C909.501 694.2 891.101 672.4 850.701 672.4H825.101V805.6Z" fill="white"/>
<path d="M768.764 809L670.764 675.8V809H666.764V669H686.564L771.964 785.2V669H775.964V809H768.764Z" fill="white"/>
<path d="M614.198 760.2L582.198 684.4L552.198 760.2H614.198ZM634.798 809L615.598 763.6H550.998L532.998 809H528.598L583.998 669H593.398L652.798 809H634.798Z" fill="white"/>
<path d="M435.339 809V669H452.139V805.6H522.139V809H435.339Z" fill="white"/>
<path d="M359.292 811C327.892 811 307.292 796 304.692 767.8H318.892C320.492 792.6 333.092 807.8 359.292 807.8C380.092 807.8 398.492 796.8 398.492 777C398.492 759.8 385.292 753.8 363.892 748L346.692 743.4C324.292 737.4 310.692 728.8 310.692 706.6C310.692 681.6 333.092 666 359.692 666C386.692 666 406.092 680.2 409.292 705.2H395.492C393.092 683 381.892 669.2 359.692 669.2C339.092 669.2 322.692 681.6 322.692 699.6C322.692 715 333.092 721.8 352.292 726.8L372.092 732C395.292 738 410.692 746.6 410.692 770.2C410.692 798.4 385.292 811 359.292 811Z" fill="white"/>
<path d="M265.8 809V669H282.6V809H265.8Z" fill="white"/>
<path d="M1217.11 1005.6V1009H1121.51V869H1215.71V872.4H1138.31V935.2H1210.51V938.6H1138.31V1005.6H1217.11Z" fill="white"/>
<path d="M1097.46 940H1036.06V1009H1019.26V869H1103.06V872.4H1036.06V936.6H1097.46V940Z" fill="white"/>
<path d="M968.77 1009V869H985.57V1009H968.77Z" fill="white"/>
<path d="M865.934 1009V869H882.734V1005.6H952.734V1009H865.934Z" fill="white"/>
<path d="M675.301 1009V869H717.701C763.701 869 795.501 889 795.501 938.2C795.501 984.6 763.701 1009 717.701 1009H675.301ZM692.101 1005.6H717.701C758.101 1005.6 776.501 979.8 776.501 938.2C776.501 894.2 758.101 872.4 717.701 872.4H692.101V1005.6Z" fill="white"/>
<path d="M635.764 1009L537.764 875.8V1009H533.764V869H553.564L638.964 985.2V869H642.964V1009H635.764Z" fill="white"/>
<path d="M481.197 960.2L449.197 884.4L419.197 960.2H481.197ZM501.797 1009L482.597 963.6H417.997L399.997 1009H395.597L450.997 869H460.397L519.797 1009H501.797Z" fill="white"/>
<path d="M302.339 1009V869H319.139V1005.6H389.139V1009H302.339Z" fill="white"/>
<path d="M226.292 1011C194.892 1011 174.292 996 171.692 967.8H185.892C187.492 992.6 200.092 1007.8 226.292 1007.8C247.092 1007.8 265.492 996.8 265.492 977C265.492 959.8 252.292 953.8 230.892 948L213.692 943.4C191.292 937.4 177.692 928.8 177.692 906.6C177.692 881.6 200.092 866 226.692 866C253.692 866 273.092 880.2 276.292 905.2H262.492C260.092 883 248.892 869.2 226.692 869.2C206.092 869.2 189.692 881.6 189.692 899.6C189.692 915 200.092 921.8 219.292 926.8L239.092 932C262.292 938 277.692 946.6 277.692 970.2C277.692 998.4 252.292 1011 226.292 1011Z" fill="white"/>
<path d="M132.8 1009V869H149.6V1009H132.8Z" fill="white"/>
<path d="M1330.11 1215.6V1219H1234.51V1079H1328.71V1082.4H1251.31V1145.2H1323.51V1148.6H1251.31V1215.6H1330.11Z" fill="white"/>
<path d="M1210.46 1150H1149.06V1219H1132.26V1079H1216.06V1082.4H1149.06V1146.6H1210.46V1150Z" fill="white"/>
<path d="M1081.77 1219V1079H1098.57V1219H1081.77Z" fill="white"/>
<path d="M978.934 1219V1079H995.734V1215.6H1065.73V1219H978.934Z" fill="white"/>
<path d="M788.301 1219V1079H830.701C876.701 1079 908.501 1099 908.501 1148.2C908.501 1194.6 876.701 1219 830.701 1219H788.301ZM805.101 1215.6H830.701C871.101 1215.6 889.501 1189.8 889.501 1148.2C889.501 1104.2 871.101 1082.4 830.701 1082.4H805.101V1215.6Z" fill="white"/>
<path d="M748.764 1219L650.764 1085.8V1219H646.764V1079H666.564L751.964 1195.2V1079H755.964V1219H748.764Z" fill="white"/>
<path d="M594.197 1170.2L562.197 1094.4L532.197 1170.2H594.197ZM614.797 1219L595.597 1173.6H530.997L512.997 1219H508.597L563.997 1079H573.397L632.797 1219H614.797Z" fill="white"/>
<path d="M415.339 1219V1079H432.139V1215.6H502.139V1219H415.339Z" fill="white"/>
<path d="M339.292 1221C307.892 1221 287.292 1206 284.692 1177.8H298.892C300.492 1202.6 313.092 1217.8 339.292 1217.8C360.092 1217.8 378.492 1206.8 378.492 1187C378.492 1169.8 365.292 1163.8 343.892 1158L326.692 1153.4C304.292 1147.4 290.692 1138.8 290.692 1116.6C290.692 1091.6 313.092 1076 339.692 1076C366.692 1076 386.092 1090.2 389.292 1115.2H375.492C373.092 1093 361.892 1079.2 339.692 1079.2C319.092 1079.2 302.692 1091.6 302.692 1109.6C302.692 1125 313.092 1131.8 332.292 1136.8L352.092 1142C375.292 1148 390.692 1156.6 390.692 1180.2C390.692 1208.4 365.292 1221 339.292 1221Z" fill="white"/>
<path d="M245.8 1219V1079H262.6V1219H245.8Z" fill="white"/>
</svg>
