<svg width="440" height="234" viewBox="0 0 440 234" fill="none" xmlns="http://www.w3.org/2000/svg">
<path d="M231.724 154.85C229.868 156.705 226.249 159.104 224.136 160.278C222.49 161.012 222.156 161.842 219.561 163.255C217.987 164.887 217.058 164.561 215.376 166.101C211.897 168.99 207.336 169.659 203.642 172.365C200.859 172.689 197.267 174.183 194.889 172.067C194.597 169.683 195.241 167.725 195.926 166.265C196.01 166.058 195.655 165.384 195.846 165.268C196.312 164.83 195.881 164.463 196.232 163.833C196.307 163.526 196.921 163.677 197.089 163.262C197.523 162.424 197.483 161.926 197.933 161.288C198.191 160.765 198.857 160.31 199.208 159.68C199.299 159.572 199.044 158.891 199.135 158.783C199.601 158.344 199.693 158.236 200.052 157.706C200.936 156.23 203.551 150.1 204.571 147.81C200.696 149.527 192.547 156.706 189.774 159.638C188.949 160.608 187.534 161.725 187.025 162.87C184.944 164.442 184.456 167.09 182.483 168.754C180.896 168.982 181.256 170.96 179.785 171.379C178.845 172.158 178.128 173.219 177.088 174.005C174.572 173.907 174.102 175.55 172.662 173.86C172.269 171.484 173.493 170.483 174.17 168.923C175.393 167.921 175.962 166.27 176.755 164.902C178.017 161.891 181.653 155.979 182.576 152.494C182.838 150.767 183.957 142.25 184.359 141.013C184.92 139.263 186.032 139.374 188.457 139.579C190.28 141.037 189.293 149.946 188.257 152.036C188.979 152.278 188.298 152.534 188.338 153.032L187.839 153.073C188.251 154.444 188.581 152.311 189.294 152.454C190.191 152.381 189.489 151.134 190.817 151.428C191.211 150.092 192.574 149.581 192.976 148.344C194.096 148.555 194.431 147.725 195.288 147.155C196.527 146.352 197.575 145.666 198.882 144.457C199.357 144.118 199.791 143.28 200.265 142.941C202.429 141.161 206.021 139.667 208.053 137.497C209.683 136.563 213.609 134.24 216.105 135.343C217.75 138.32 216.197 141.455 214.292 142.712C214.644 144.59 212.419 144.368 212.672 146.254C211.292 146.566 211.744 148.436 210.472 148.839C209.992 151.587 206.905 156.852 205.447 158.675C204.953 160.019 204.444 161.164 203.727 162.225C202.347 162.537 203.015 164.59 202.066 165.268C202.968 166.5 203.772 164.027 204.876 164.038C205.841 163.559 207.492 164.128 208.233 163.366C209.521 163.162 209.481 162.664 210.553 162.276C215.559 159.665 217.186 159.935 221.223 156.5C223.252 155.533 223.069 155.749 224.667 154.416C225.798 153.522 226.34 152.776 226.982 152.022C227.755 151.659 229.054 150.35 229.728 149.995C231.541 148.845 232.908 147.13 235.79 146.797C236.666 151.442 235.723 153.424 234.236 153.644C233.339 153.717 231.792 154.443 231.724 154.85ZM254.8 158.306C253.624 159.906 249.314 159.952 248.387 162.134C248.131 161.452 245.162 163.197 245.11 163.803C242.823 165.292 239.673 166.047 237.17 167.353C236.76 168.489 235.791 167.665 234.818 168.044C234.627 168.16 233.694 169.038 233.503 169.153C231.043 169.753 228.411 169.464 226.358 170.131C225.955 168.859 224.268 169.096 224.239 167.493C223.696 165.731 223.858 164.012 224.185 163.083C224.929 161.117 227.091 156.829 228.59 155.504C231.47 152.663 234.469 146.302 237.565 143.644C237.776 142.524 238.84 142.036 239.805 141.557C239.792 140.154 241.187 140.041 241.505 139.012C242.354 138.342 242.996 137.588 243.737 136.826C244.602 136.355 244.182 134.884 246.016 135.237C247.994 134.877 247.489 137.326 248.642 137.935C248.385 140.966 245.435 141.705 244.854 144.461C242.435 145.559 242.178 148.589 240.396 150.138C237.985 151.335 236.086 156.404 234.006 157.977C232.979 160.166 230.344 161.081 230.186 164.104C232.284 165.239 235.138 163.303 236.345 162.102C239.909 161.514 242.572 159.694 245.15 158.081C247.629 156.476 249.933 155.187 252.404 153.483C254.333 152.525 254.221 151.129 255.835 149.996C257.88 149.229 259.729 147.274 262.204 146.874C263.55 149.875 261.997 153.01 257.697 155.664C257.079 156.717 255.525 157.345 254.8 158.306ZM259.697 112.062C259.268 107.984 258.947 103.997 263.903 104.5C265.053 106.313 265.561 108.881 265.977 111.556C264.818 113.355 261.357 112.731 259.697 112.062ZM318.464 136.617C318.775 137.996 317.269 139.222 317.988 140.668C314.978 141.914 312.914 143.686 310.02 145.123L309.621 145.156C308.625 145.236 308.29 146.066 307.17 145.855C307.043 146.768 306.329 146.625 305.779 147.271C304.224 147.898 302.905 147.704 302.12 149.172C300.123 150.537 293.013 154.421 291.315 155.762C288.62 157.183 286.918 157.22 284.455 159.024C283.961 160.368 283.643 161.397 282.328 162.506C282.651 162.781 282.875 163.064 282.907 163.463C282.987 164.46 282.346 165.214 282.642 166.394C281.645 166.474 280.212 171.104 279.312 172.381C279.425 173.776 278.338 176.472 277.844 177.816C277.263 178.064 276.812 178.702 276.968 179.392C276.353 182.953 274.401 186.12 273.486 189.705L273.518 190.104C273.615 191.3 271.904 191.237 272.324 192.708C271.297 194.898 270.892 197.338 269.441 199.261C269.614 200.15 263.866 209.743 263.23 211.801C261.855 213.417 260.704 215.316 259.86 217.29C257.812 219.261 255.219 223.182 252.691 224.189C252.238 226.031 245.357 227.79 243.663 227.927L242.359 227.932C242.111 227.35 241.581 226.991 240.883 227.047C239.012 224.991 238.671 222.009 237.373 219.605L237.341 219.207C237.205 217.512 237.79 216.061 237.446 214.282C238.298 212.408 238.743 210.466 238.881 208.448C241.836 202.792 243.63 196.427 248.168 191.747C248.148 190.244 249.403 189.641 250.336 188.763C251.506 185.86 253.953 183.857 255.969 181.487C255.913 180.789 258.662 177.558 259.451 177.394C261.546 173.513 266.065 169.838 269.229 166.773L270.592 166.262C271.999 165.045 273.413 163.928 274.704 162.519L275.421 161.458L276.381 159.675C274.495 159.928 272.151 160.719 270.753 162.035C268.061 162.252 265.451 163.466 262.759 163.683C261.563 163.78 260.901 163.031 259.33 163.458C257.854 162.574 256.737 161.159 255.269 160.375L255.237 159.976C255.14 158.78 254.454 157.732 254.357 156.536C254.092 153.246 255.769 150.402 256.624 147.324C258.557 145.161 260.365 142.708 261.759 140.087L273.607 131.507L275.003 131.394C279.228 129.047 280.152 128.07 285.335 127.652C287.827 127.451 290.734 127.417 293.123 128.428C294.057 130.058 295.924 130.81 296.758 132.449L296.991 135.339C297.176 137.632 294.215 139.476 292.593 140.51C292.083 141.654 291.881 142.875 291.471 144.011C290.506 144.49 290.268 146.516 290.357 147.612L290.389 148.011L291.633 148.513C292.331 148.456 292.985 149.106 293.128 148.392C296.213 146.839 298.884 145.119 302.2 143.948C302.758 143.402 303.057 143.378 303.507 142.739C304.978 142.32 306.043 141.833 307.29 141.13C307.891 139.878 316.446 136.479 318.24 136.334C318.34 136.326 318.447 136.418 318.464 136.617ZM291.776 135.359C291.583 132.966 286.519 132.372 284.725 132.516C283.628 132.605 277.776 134.682 277.342 135.52C274.427 135.454 269.04 140.804 266.238 142.134C265.669 143.785 264.577 145.177 263.262 146.287C262.602 148.045 261.518 149.537 260.219 150.846C260.164 152.656 259.097 154.348 259.242 156.142C259.298 156.84 259.653 157.513 259.901 158.095C261.029 158.405 261.975 158.931 263.171 158.835C266.36 158.577 269.166 156.044 272.18 156.101C273.196 155.016 274.452 154.413 275.955 154.392C277.572 152.055 279.852 150.466 282.247 149.069C283.987 144.515 285.387 139.486 288.917 135.991C290.089 135.595 290.588 135.555 291.808 135.757L291.776 135.359ZM276.672 165.772C274.978 165.908 258.083 182.821 257.638 184.763C255.921 187.109 254.212 189.554 251.956 191.442C250.468 195.374 245.891 202.064 243.585 207.065C242.642 209.048 243.174 211.914 241.7 213.538C241.931 213.921 242.171 214.403 242.203 214.802L242.701 220.982C242.782 221.978 244.312 221.052 243.827 222.496C244.142 222.671 244.449 222.747 244.848 222.715C246.343 222.594 247.682 221.784 249.029 221.073L249.455 220.136C252.384 217.893 254.376 215.224 257.082 212.699C257.368 211.271 263.083 201.279 263.773 201.123C264.538 200.66 263.48 198.739 265.115 199.109C265.504 196.469 271.822 181.512 273.14 179.199C274.168 177.009 274.721 175.159 275.09 173.524C274.981 170.924 277.121 168.845 276.904 166.154C276.888 165.955 276.971 165.747 276.672 165.772ZM332.14 134.009C333.681 131.979 336.932 127.503 336.843 126.406C332.646 127.848 331.795 132.231 327.275 133.398C326.439 135.472 322.49 140.004 322.498 140.104C322.124 140.435 321.326 140.499 320.677 141.154C319.386 142.562 318.318 144.253 316.704 145.387C315.585 147.684 312.958 148.699 312.917 151.913C310.09 152.943 309.127 155.93 307.602 158.16C306.976 159.113 305.362 160.247 305.443 161.244C305.499 161.941 302.917 164.758 302.718 164.774C301.123 164.903 301.144 166.406 299.449 166.543C298.552 166.615 297.993 164.654 297.912 163.657C297.639 160.268 300.875 158.101 302.046 155.197C303.838 152.545 305.123 147.324 306.709 147.096C306.82 145.984 307.047 145.062 308.012 144.583C311.106 139.418 314.085 134.061 317.818 129.345C319.648 128.395 319.431 125.704 321.26 124.754C323.969 121.024 326.287 117.426 329.904 112.519C330.271 112.088 331.052 111.825 331.319 111.402C331.586 110.979 331.338 110.397 331.605 109.974C332.789 108.474 334.494 107.233 335.686 105.833C336.96 104.225 337.812 102.35 339.087 100.743C342.454 96.4582 346.725 92.201 351.113 88.1351C351.535 88.4019 351.843 88.4775 352.142 88.4534C352.74 88.4051 353.314 88.0579 353.812 88.0177C354.211 87.9855 354.916 88.0289 354.973 88.7266C355.142 90.8198 353.479 91.3552 352.894 92.807C350.491 94.1044 351.402 97.9435 347.14 98.5883C345.997 100.587 341.65 105.151 341.682 105.55C341.583 105.558 341.375 105.474 341.275 105.482C341.076 105.498 340.386 105.654 340.427 106.153C340.443 106.352 340.567 106.643 340.575 106.743C340.583 106.842 335.44 113.979 334.044 114.091C333.646 114.124 333.742 115.32 333.567 115.635C333.292 115.958 332.128 116.453 332.152 116.752C332.168 116.952 332.292 117.243 332.308 117.442C332.348 117.94 329.864 118.241 329.993 119.836C330.009 120.035 330.117 120.127 330.125 120.226C328.762 120.738 328.152 121.89 327.866 123.318C325.207 123.934 325.572 127.215 323.029 128.022C323.138 130.622 319.871 134.898 319.281 135.046C318.416 135.517 317.842 135.865 317.939 137.061C318.146 137.144 318.453 137.22 318.553 137.212C318.653 137.204 323.829 132.974 325.574 129.723C325.781 129.807 325.881 129.799 326.08 129.783C327.476 129.67 327.781 127.238 329.168 127.025C330.556 126.813 331.559 124.324 333.221 123.789C335.892 122.069 337.584 119.424 341.009 118.345C341.795 119.385 342.756 120.11 343.634 121.043C343.711 123.244 342.014 124.585 342.118 125.88C342.255 127.575 338.606 132.083 338.239 132.514C337.889 133.144 336.239 135.083 335.834 137.523C333.73 138.797 333.628 142.517 331.13 145.126C329.852 147.938 328.466 150.658 326.965 153.187C326.881 153.395 326.798 153.602 326.806 153.702C326.854 154.3 327.484 154.65 327.5 154.85C327.508 154.949 327.416 155.057 327.117 155.081C326.651 155.52 326.492 156.034 326.241 156.657C327.044 157.896 328.363 158.091 329.56 157.994C330.955 157.882 332.119 157.386 333.714 157.258C334.256 156.512 337.006 155.788 338.919 154.631C341.156 153.748 342.873 151.402 345.376 150.097C346.914 149.271 348.321 148.053 349.787 146.33C350.413 145.377 353.501 142.619 354.597 142.531C355.395 142.467 356.564 143.275 356.668 144.571C356.901 147.462 352.983 149.885 351.035 151.848C350.501 152.693 348.238 154.481 346.599 155.315C341.111 158.166 335.228 162.352 328.251 162.915C325.161 163.165 321.807 162.632 321.55 159.443C321.381 157.35 321.883 156.105 321.682 153.613C323.053 153.202 322.262 150.858 323.841 150.53C323.733 150.438 323.717 150.239 323.709 150.139C323.564 148.345 325.645 146.773 326.346 145.512C327.214 143.837 326.161 143.22 328.85 140.494C329.339 137.847 331.435 136.474 332.14 134.009ZM387.773 146.175C389.364 147.251 387.543 148.301 388.528 149.325C386.225 150.614 385.233 151.999 383.702 152.925C382.746 153.503 381.172 155.135 379.617 155.762C379.318 155.786 377.879 156.605 377.596 156.828C377.014 157.076 376.947 157.482 375.775 157.878C375.193 158.126 373.447 158.868 372.566 159.14C371.103 159.659 372.642 158.833 370.589 159.5C369.608 159.78 368.727 160.052 367.778 160.73C365.613 160.002 362.065 160.79 359.166 160.923C358.487 159.975 356.984 159.996 355.656 159.701C354.299 157.804 351.563 156.219 350.791 152.87C350.192 150.411 350.688 147.863 351.177 145.215C352.172 142.626 352.516 138.184 353.807 136.776C355.886 132.696 357.103 127.882 359.62 124.268C358.858 123.527 357.172 123.763 355.693 124.083C354.612 124.371 352.26 125.062 350.092 125.538C347.026 126.087 343.06 127.911 341.798 124.702C341.445 122.825 344.209 123.505 345.034 122.535C345.867 121.665 348.092 121.887 348.709 120.834C353.669 120.133 358.197 119.066 362.942 118.181C363.731 118.017 364.364 117.164 364.723 116.633C364.99 116.21 364.842 115.62 365.109 115.197C365.734 114.244 367.699 112.48 368.583 111.004C370.383 108.451 371.662 105.64 373.247 102.903C374.845 101.57 374.404 98.5963 377.726 98.7296C379.719 98.5688 378.398 102.086 379.566 102.895C377.552 107.773 373.591 110.901 372.438 116.512C372.718 117.493 374.847 116.519 375.867 116.737C386.851 114.848 398.573 113.401 409.564 111.611C410.809 112.113 412.568 112.774 411.492 114.365C409.016 114.766 406.947 115.234 407.039 115.126C404.24 115.251 402.518 116.293 399.404 116.243C397.407 117.608 395.449 116.964 392.838 118.178C390.952 118.43 389.25 118.467 388.022 118.165C384.853 119.925 384.525 118.346 381.316 119.609C379.953 120.12 379.953 120.12 378.525 119.834C377.66 120.305 376.795 120.776 375.715 121.064C374.535 121.359 371.966 119.36 370.432 121.49C370.612 122.478 368.753 121.826 368.08 122.181C367.209 125.06 364.73 126.665 363.874 129.744C361.619 131.631 362.051 134.506 359.588 136.31C359.793 137.597 358.445 138.308 357.928 139.353C357.31 140.406 357.439 142.001 356.299 142.795C356.007 146.631 354.661 149.85 356.653 153.401C357.814 154.11 358.576 154.851 359.696 155.062C360.103 155.129 360.028 155.436 360.135 155.528C363.446 156.766 367.711 154.917 371.159 154.137C372.622 153.618 374.982 153.026 376.464 151.502C376.556 151.394 379.043 149.889 379.143 149.881C379.908 149.418 380.45 148.672 381.315 148.201C382.088 147.838 383.384 147.733 384.165 147.47C384.575 146.333 386.393 146.487 387.773 146.175ZM377.074 150.75C375.934 151.545 374.495 152.363 374.463 151.964C374.31 150.07 374.085 147.28 373.886 147.296C377.784 145.878 382.075 140.616 385.32 138.548C389.289 135.519 394.56 129.977 398.861 127.323C401.141 125.734 403.097 123.871 405.277 122.291C407.174 120.934 409.023 118.979 411.69 118.463C412.253 119.22 413.015 119.961 413.777 120.702C414.412 122.357 413.229 123.856 412.727 125.101C411.883 127.075 410.824 128.866 409.772 130.757C409.689 130.964 410.036 131.538 409.845 131.654C409.012 132.524 405.194 141.159 404.848 143.093C403.649 144.393 402.134 145.519 401.905 147.644C403.114 148.951 404.639 146.721 406.689 147.258C410.795 145.924 415.184 144.366 419.282 142.932C423.89 140.353 428.796 137.75 432.973 134.804C433.142 136.898 433.749 139.457 433.003 138.915C431.939 139.402 430.581 141.218 429.616 141.697C429.325 141.82 428.492 142.69 428.193 142.714C427.611 142.962 427.312 142.986 426.838 143.325C425.3 144.152 424.69 145.304 423.451 146.107C422.976 146.446 422.486 146.586 421.996 146.726C421.031 147.205 419.883 147.899 418.811 148.287C417.739 148.674 417.464 148.997 416.001 149.517C414.729 149.92 411.305 150.999 409.507 152.348C404.173 153.38 398.517 156.645 392.489 156.53C390.587 156.583 388.696 155.532 386.595 155.601C385.194 154.409 383.686 153.126 381.537 152.598C380.934 151.342 380.813 149.847 381.207 148.511C379.68 148.233 379.768 149.329 378.887 149.601C378.645 150.323 377.101 149.845 377.074 150.75ZM392.847 149.779C394.685 148.929 395.776 147.536 396.429 145.678C397.819 144.261 401.847 138.218 401.953 135.802C403.208 135.199 403.334 131.778 404.489 131.183C404.301 130.094 404.444 129.381 405.333 129.209C405.186 128.619 405.038 128.029 404.256 128.292C404.213 128.998 403.523 129.154 403.472 129.76C400.055 130.939 399.855 134.667 396.331 135.754C394.207 138.032 387.098 144.424 384.444 146.344C386.997 148.144 388.701 150.615 392.847 149.779Z" fill="white"/>
<path d="M6.04483 80.9764C4.90542 81.7712 3.467 82.5903 3.43462 82.1916C3.28084 80.2979 3.05421 77.507 2.85487 77.5232C6.75271 76.1031 11.0407 70.8388 14.2839 68.7695C18.2515 65.7384 23.5201 60.1938 27.8191 57.5371C30.0979 55.9474 32.0535 54.083 34.2326 52.5015C36.1289 51.1435 37.9767 49.1876 40.6435 48.67C41.2066 49.4269 41.9691 50.1676 42.7315 50.9084C43.3675 52.5623 42.1851 54.0629 41.6842 55.3076C40.8412 57.2823 39.7828 59.0738 38.7324 60.965C38.6489 61.1725 38.9965 61.7462 38.8052 61.8621C37.9729 62.7323 34.1595 71.3693 33.8149 73.3035C32.6163 74.6048 31.1025 75.731 30.8738 77.8565C32.0835 79.1629 33.6079 76.9322 35.658 77.468C39.7633 76.1314 44.1514 74.5711 48.2486 73.1347C52.8548 70.5535 57.76 67.9479 61.9351 65.0003C62.1051 67.0934 62.7142 69.6525 61.968 69.1111C60.9039 69.5988 59.5465 71.4147 58.5821 71.8943C58.2912 72.0183 57.4589 72.8885 57.1599 72.9128C56.578 73.1607 56.279 73.1849 55.8049 73.5244C54.2668 74.3516 53.6582 75.5047 52.4191 76.3076C51.945 76.6471 51.4548 76.7872 50.9645 76.9274C50.0001 77.407 48.8526 78.1022 47.7805 78.4902C46.7084 78.8782 46.4337 79.2015 44.971 79.7216C43.6995 80.1259 40.2758 81.2065 38.4791 82.5564C33.1454 83.5915 27.4914 86.8598 21.4625 86.7474C19.5606 86.8015 17.6694 85.7512 15.5682 85.8215C14.1673 84.6309 12.6585 83.3489 10.5088 82.8211C9.9052 81.5659 9.78379 80.0708 10.1769 78.7346C8.64948 78.4573 8.73851 79.5537 7.85765 79.8259C7.61529 80.5479 6.07165 80.0712 6.04483 80.9764ZM21.8173 79.9966C23.6544 79.1451 24.7452 77.7522 25.3969 75.8934C26.7868 74.4762 30.8107 68.4307 30.9154 66.0143C32.1707 65.4107 32.2942 61.9895 33.4498 61.394C33.2611 60.3057 33.4038 59.5918 34.2927 59.4193C34.1445 58.8294 33.9962 58.2394 33.2151 58.5035C33.172 59.2093 32.4824 59.3657 32.4313 59.9718C29.0156 61.1521 28.8168 64.8804 25.2933 65.9692C23.1708 68.2485 16.0652 74.6446 13.412 76.5656C15.966 78.3648 17.6715 80.8349 21.8173 79.9966ZM102.584 67.2175C103.982 65.9001 106.926 63.8551 107.209 63.6314C107.4 63.5156 109.251 67.7797 109.251 67.7797C109.251 67.7797 103.312 72.4759 103.005 72.4005C102.698 72.3251 96.823 77.8186 92.2194 79.1957C91.0395 79.4922 89.5525 79.7133 88.405 80.4084C86.2122 80.5865 83.8388 79.7759 81.6461 79.954C80.0943 79.3777 79.3668 77.8315 78.448 76.4012C75.9132 77.3093 74.0331 78.8666 72.5759 80.6905C69.0525 81.7793 65.3595 84.4871 61.4293 85.5085C60.64 85.6729 59.7268 85.5464 59.0372 85.7028C57.7495 85.9077 55.6888 86.4763 53.7141 85.6334C51.5724 85.2053 51.2542 82.5223 49.9367 81.1243C50.3891 79.2817 50.4104 77.0727 50.9624 75.2219C52.037 73.6297 59.4327 59.6854 61.0462 58.5511C60.7254 57.0722 65.4687 52.4732 65.5709 51.2609C66.0126 50.5228 65.7997 49.1355 67.3109 49.2134C69.4632 48.537 70.0668 49.7922 71.2199 50.4009C71.9909 54.9534 69.2137 56.5836 67.0912 58.8628C66.9379 60.6812 65.2571 62.2223 64.2417 63.3081C63.4417 64.577 59.515 71.8185 58.1681 72.5299C57.8129 75.5686 54.5723 76.4337 55.7177 80.6549C60.7392 81.9527 64.3593 78.3479 68.3811 77.2187C70.4525 75.5455 72.664 74.3626 74.8513 72.8807C76.7395 71.4231 78.3879 69.4833 80.7153 68.4917C82.3096 64.6501 87.7208 58.3916 90.3603 55.067C91.1764 53.9975 91.5615 52.5616 93.0161 51.9418C92.9028 50.5464 93.9749 50.1584 94.7156 49.3959C95.6719 48.8166 96.4045 47.9545 96.9135 46.8095C97.3876 46.47 98.9606 44.8374 99.7716 46.1761C101.781 46.2136 101.666 49.7345 101.057 50.8875C100.874 51.1031 100.65 50.8202 100.591 51.3267C100.656 52.1241 100.282 52.4554 99.856 53.393C97.6824 56.2784 95.6247 59.355 93.3352 62.0491C91.0458 64.7433 85.0795 70.3446 84.614 74.4959C86.3894 75.355 88.399 75.3924 89.8779 75.0717C94.39 73.8023 99.3974 69.9845 102.584 67.2175ZM188.212 57.2543C185.558 59.1753 180.985 65.8674 177.793 67.3306C173.006 68.9233 172.686 71.1565 168.007 72.8408C163.893 74.0777 158.447 77.4296 153.767 75.4017C150.982 73.22 152.296 68.3978 152.419 64.9766C153.4 64.6963 152.772 63.142 153.752 62.8617C153.787 62.0563 153.06 60.5101 154.496 60.8951C154.019 58.7266 155.042 57.7406 155.643 56.4878C156.251 55.3348 156.413 53.6161 157.229 52.5465C157.821 51.1941 158.745 50.2161 158.807 48.5055C156.024 48.8318 155.214 51.2052 153.342 52.8622C149.598 56.1761 147.147 60.5889 143.766 64.6759C142.667 65.9691 141.569 67.2623 140.154 68.3804C138.711 71.6079 136.613 74.1862 134.63 76.9557C131.891 76.5762 131.845 78.4861 129.429 78.3814C129.016 77.0103 127.54 76.1269 129.153 74.9925C129.24 73.5809 129.218 72.0778 130.381 71.582C131.292 69.2005 132.641 67.285 133.12 64.5372C134.793 62.8964 135.048 59.8658 136.506 58.0419C136.678 55.2187 137.496 52.9449 137.776 50.2133C135.594 49.2869 133.604 51.9568 132.189 53.0749C130.369 54.1257 128.987 55.6425 127.721 57.3506C125.701 58.4176 124.542 60.2173 123.285 62.025C120.925 62.6179 120.944 65.3253 118.269 65.7432C116.478 68.3968 114.687 71.0505 112.141 73.0631C112.314 73.9521 111.258 74.5395 110.9 75.0702C110.45 75.7087 110.547 76.9048 109.559 77.0854C109.306 78.9119 107.66 79.6475 107.075 81.0995C104.352 80.9194 102.305 82.8915 100.764 81.2108C100.823 80.7043 100.683 80.214 100.642 79.7157C100.669 78.8105 100.844 78.4953 101.485 77.741C103.583 75.1627 103.984 70.214 105.91 66.7468C106.505 64.1902 107.954 62.2666 108.657 59.8017C109.166 58.6567 109.683 57.6114 109.702 56.6066C110.073 53.7672 110.765 52.4068 111.581 47.6251C112.3 45.3594 109.638 47.1808 109.891 45.3543C109.307 43.0943 111.839 43.3903 111.577 41.4049C113.256 41.068 112.778 38.8995 113.694 37.8218C113.753 37.3154 114.567 37.45 114.518 36.8519L115.515 36.771C120.329 37.9853 118.601 46.3527 116.029 49.2705C116.118 50.3668 115.716 51.6034 115.805 52.6998C115.137 54.3593 115.337 54.3431 114.984 56.1777C115.297 57.5569 113.915 59.0737 114.093 61.2665C114.489 62.4382 115.316 60.2642 116.453 60.6735C116.779 59.7441 118.182 59.7305 118.185 58.5263C120.138 57.8661 121.328 56.4651 122.204 54.8891C123.933 53.946 125.339 52.7282 126.753 51.6101C128.051 50.3007 130.104 49.6324 130.863 47.8651C135.101 46.9191 136.636 43.5839 140.981 42.7294C144.72 45.5359 142.706 51.6189 142.572 56.1446C142.761 57.2329 143.819 55.4414 144.425 55.4925C144.668 54.7705 145.126 54.2317 145.799 53.876C146.284 52.432 147.73 51.7126 148.861 50.8181C150.362 48.2884 153.495 47.3317 154.671 44.5272C158.27 43.1313 159.929 40.0871 163.313 38.5081C167.162 40.202 166.053 46.3118 164.171 49.0733C163.288 54.2618 160.034 57.4355 158.935 62.4409C158.216 64.7065 157.19 66.8967 157.665 70.2694C161.49 71.6643 163.707 68.0731 167.079 67.5986C167.554 67.2591 167.489 66.4618 168.494 66.4805C169.043 65.8339 170.04 65.753 170.813 65.3892C172.443 64.4542 173.041 64.4057 174.937 63.0477C177.315 61.45 176.504 60.1112 179.322 58.9794C181.835 56.5681 188.773 46.8748 188.212 57.2543ZM264.087 51.0929C261.434 53.0139 256.86 59.706 253.668 61.1692C248.881 62.7618 248.561 64.9951 243.882 66.6793C239.769 67.9163 234.322 71.2682 229.643 69.2402C226.857 67.0586 228.171 62.2364 228.294 58.8152C229.275 58.5349 228.647 56.9806 229.628 56.7003C229.663 55.8949 228.935 54.3487 230.371 54.7337C229.894 52.5652 230.917 51.5791 231.518 50.3264C232.127 49.1734 232.288 47.4547 233.104 46.3851C233.697 45.0327 234.62 44.0547 234.682 42.3441C231.899 42.6704 231.089 45.0438 229.217 46.7008C225.473 50.0147 223.022 54.4275 219.642 58.5145C218.543 59.8077 217.444 61.1009 216.03 62.219C214.586 65.4464 212.488 68.0247 210.506 70.7943C207.766 70.4148 207.72 72.3247 205.304 72.22C204.892 70.8488 203.415 69.9654 205.029 68.8311C205.115 67.4195 205.093 65.9163 206.257 65.4205C207.167 63.039 208.516 61.1235 208.995 58.3757C210.668 56.735 210.924 53.7043 212.381 51.8804C212.553 49.0572 213.372 46.7835 213.651 44.0519C211.469 43.1255 209.479 45.7953 208.065 46.9135C206.244 47.9643 204.862 49.4811 203.596 51.1892C201.576 52.2562 200.418 54.0558 199.16 55.8636C196.8 56.4565 196.819 59.1638 194.144 59.5817C192.353 62.2354 190.562 64.8891 188.017 66.9017C188.189 67.7907 187.133 68.378 186.775 68.9088C186.325 69.5473 186.422 70.7433 185.434 70.924C185.181 72.7504 183.535 73.4861 182.951 74.9381C180.227 74.758 178.18 76.7301 176.639 75.0493C176.698 74.5429 176.558 74.0526 176.517 73.5543C176.544 72.6491 176.719 72.3339 177.36 71.5796C179.459 69.0013 179.859 64.0526 181.785 60.5854C182.38 58.0288 183.829 56.1052 184.532 53.6402C185.041 52.4953 185.558 51.45 185.577 50.4452C185.948 47.6058 186.64 46.2453 187.456 41.4636C188.175 39.198 185.514 41.0194 185.767 39.1929C185.182 36.9328 187.714 37.2288 187.453 35.2435C189.131 34.9066 188.654 32.7381 189.569 31.6604C189.629 31.1539 190.442 31.2885 190.394 30.6905L191.39 30.6096C196.204 31.8239 194.476 40.1913 191.904 43.109C191.993 44.2054 191.592 45.442 191.681 46.5383C191.013 48.1978 191.212 48.1817 190.859 50.0162C191.172 51.3954 189.79 52.9123 189.968 55.105C190.364 56.2768 191.191 54.1028 192.328 54.5121C192.654 53.5827 194.057 53.569 194.06 52.3649C196.013 51.7046 197.203 50.3037 198.079 48.7277C199.808 47.7846 201.214 46.5668 202.628 45.4487C203.927 44.1393 205.979 43.471 206.739 41.7037C210.976 40.7576 212.511 37.4224 216.856 36.568C220.596 39.3745 218.581 45.4575 218.447 49.9832C218.636 51.0715 219.694 49.2799 220.301 49.3311C220.543 48.6091 221.001 48.0702 221.674 47.7146C222.159 46.2706 223.605 45.5512 224.737 44.6567C226.237 42.1269 229.37 41.1702 230.547 38.3658C234.145 36.9699 235.805 33.9256 239.188 32.3466C243.038 34.0406 241.928 40.1504 240.046 42.9119C239.163 48.1003 235.909 51.2741 234.811 56.2794C234.092 58.5451 233.065 60.7353 233.54 64.108C237.365 65.5029 239.582 61.9117 242.955 61.4372C243.429 61.0977 243.364 60.3003 244.369 60.3191C244.918 59.6725 245.915 59.5915 246.688 59.2278C248.318 58.2928 248.916 58.2442 250.812 56.8863C253.191 55.2885 252.38 53.9498 255.197 52.818C257.71 50.4067 264.649 40.7133 264.087 51.0929ZM297.391 49.492C297.408 49.6913 297.683 53.0802 297.424 53.6028C296.123 56.1163 283.507 65.0669 276.072 66.1723C269.825 67.0809 263.922 66.0553 259.924 63.7714C257.608 63.6585 256.592 61.0321 256.645 59.2218C256.085 57.2608 255.284 54.8175 255.696 52.4765C255.696 52.4765 256.079 52.2448 256.054 51.9458C256.273 50.9248 257.479 46.011 258.634 45.4155C259.019 43.9797 259.396 42.4441 260.751 41.8324C261.629 39.0523 264.223 37.6377 265.432 35.2319C268.026 33.8173 270.521 32.4108 272.253 30.2636C275.765 30.2793 277.015 28.3719 280.312 28.2045C281.797 29.1876 282.002 30.4752 282.056 32.3771C282.121 33.1744 281.905 32.9913 281.738 33.4062C281.396 34.1362 281.733 35.8145 281.009 36.7763C281.324 40.6635 277.984 45.2488 277.969 48.7616C276.63 49.5726 275.803 51.7467 274.995 52.9159C274.187 54.0852 272.824 54.5972 272.331 55.9415C270.104 56.925 269.053 58.8162 266.825 59.7998C268.426 60.9741 270.866 61.3779 272.294 61.6632L273.291 61.5823C278.549 60.8543 286.156 56.9257 290.092 53.496C290.932 52.7254 292.844 51.5668 293.709 51.0953C294.582 50.7234 296.395 49.5729 297.391 49.492ZM276.496 34.3335C275.273 35.3358 273.945 35.0423 273.18 35.5057C270.419 37.3352 269.067 40.4549 266.473 41.8694C264.946 45.3043 260.922 51.3498 261.235 56.4412C262.738 56.4195 264.468 55.4764 265.042 55.1288C266.181 54.334 266.846 53.8786 267.778 53.0003C270.574 50.3654 273.903 43.1724 275.462 40.1362C276.246 38.6679 277.221 37.0838 277.067 35.1901C276.943 34.8991 276.895 34.3011 276.496 34.3335ZM331.788 48.0031C333.178 46.586 336.58 44.0021 336.572 43.9025C336.563 43.8028 338.175 47.5848 338.175 47.5848C338.175 47.5848 334.986 51.5559 334.87 51.3647C329.954 55.0747 325.418 59.7572 318.862 61.7946C315.696 62.3526 312.068 62.1456 309.751 62.0328C308.746 62.014 308.455 62.138 307.318 61.7287C307.111 61.6452 307.286 61.33 306.78 61.2708C305.484 61.376 304.64 59.6385 303.654 58.615C303.277 56.4384 304.077 55.1695 304.23 53.3511C306.662 49.9431 307.874 46.3332 310.63 43.1999C310.26 41.1229 309.627 38.2648 308.625 37.0419C305.791 37.9744 298.481 50.5071 295.755 51.5311C295.755 51.5311 291.956 49.231 292.064 49.3226C293.454 47.9055 295.862 44.1984 297.077 43.0965C298.251 41.4962 302.593 34.4216 304.314 33.3788C304.325 32.2743 307.352 30.0219 308.093 29.2594C308.543 28.6209 307.99 26.7595 310.24 27.2792C312.581 27.6911 312.533 30.8052 313.142 33.3643C314.036 34.4956 314.481 36.2654 315.384 37.4964C315.171 39.8212 317.146 40.6641 317.308 42.6576C316.411 42.7304 316.723 44.1096 316.465 44.6323C316.114 45.2627 315.449 45.718 315.183 46.141C314.313 49.0208 312.707 50.2548 311.407 52.7684C311.022 54.2042 309.128 54.358 309.82 56.7097C311.803 57.6523 314.809 57.6088 317.975 57.0508C323.508 55.9995 328.227 51.1015 331.788 48.0031Z" fill="white"/>
</svg>
